<?xml version="1.0" encoding="UTF-8" standalone="no"?>
<!-- Created with Inkscape (http://www.inkscape.org/) -->

<svg
   version="1.1"
   id="svg1"
   width="465.85333"
   height="145.06667"
   viewBox="0 0 465.85333 145.06667"
   sodipodi:docname="FEI CZ.svg"
   inkscape:version="1.3.2 (091e20ef0f, 2023-11-25, custom)"
   xmlns:inkscape="http://www.inkscape.org/namespaces/inkscape"
   xmlns:sodipodi="http://sodipodi.sourceforge.net/DTD/sodipodi-0.dtd"
   xmlns="http://www.w3.org/2000/svg"
   xmlns:svg="http://www.w3.org/2000/svg">
  <defs
     id="defs1" />
  <sodipodi:namedview
     id="namedview1"
     pagecolor="#ffffff"
     bordercolor="#000000"
     borderopacity="0.25"
     inkscape:showpageshadow="2"
     inkscape:pageopacity="0.0"
     inkscape:pagecheckerboard="0"
     inkscape:deskcolor="#d1d1d1"
     inkscape:zoom="1.7129855"
     inkscape:cx="232.92667"
     inkscape:cy="72.388238"
     inkscape:window-width="1920"
     inkscape:window-height="1052"
     inkscape:window-x="0"
     inkscape:window-y="0"
     inkscape:window-maximized="1"
     inkscape:current-layer="g1">
    <inkscape:page
       x="0"
       y="0"
       inkscape:label="1"
       id="page1"
       width="465.85333"
       height="145.06667"
       margin="0"
       bleed="0" />
  </sodipodi:namedview>
  <g
     id="g1"
     inkscape:groupmode="layer"
     inkscape:label="1">
    <g
       id="group-R5">
      <path
         id="path2"
         d="m 308.617,392.309 h -15.996 v 186.812 h 15.996 V 392.309"
         style="fill:#1bab9a;fill-opacity:1;fill-rule:nonzero;stroke:none"
         transform="matrix(0.13333333,0,0,-0.13333333,0,145.06667)" />
      <path
         id="path3"
         d="M 493.02,341.035 H 477.023 V 527.934 H 493.02 V 341.035"
         style="fill:#1bab9a;fill-opacity:1;fill-rule:nonzero;stroke:none"
         transform="matrix(0.13333333,0,0,-0.13333333,0,145.06667)" />
      <path
         id="path4"
         d="m 554.496,392.309 h -16 v 186.812 h 16 V 392.309"
         style="fill:#1bab9a;fill-opacity:1;fill-rule:nonzero;stroke:none"
         transform="matrix(0.13333333,0,0,-0.13333333,0,145.06667)" />
      <path
         id="path5"
         d="m 431.555,289.746 h -15.996 v 186.82 h 15.996 v -186.82"
         style="fill:#1bab9a;fill-opacity:1;fill-rule:nonzero;stroke:none"
         transform="matrix(0.13333333,0,0,-0.13333333,0,145.06667)" />
      <path
         id="path6"
         d="m 370.078,341.117 h -15.992 v 186.817 h 15.992 V 341.117"
         style="fill:#1bab9a;fill-opacity:1;fill-rule:nonzero;stroke:none"
         transform="matrix(0.13333333,0,0,-0.13333333,0,145.06667)" />
      <path
         id="path7"
         d="M 369.555,764.016 342.484,663.234 h -26.582 l -27.074,100.782 h 19.445 l 21.309,-85.692 21.152,85.692 h 18.821"
         style="fill:#1bab9a;fill-opacity:1;fill-rule:nonzero;stroke:none"
         transform="matrix(0.13333333,0,0,-0.13333333,0,145.06667)" />
      <path
         id="path8"
         d="m 400.648,797.297 h 16.024 l 9.172,-10.574 9.179,10.574 H 450.57 L 433,774.281 h -14.773 z m 59.258,-106.375 c 0,-8.918 -3.105,-16.016 -9.336,-21.309 -6.211,-5.285 -14.668,-7.929 -25.343,-7.929 -5.907,0 -12.032,0.828 -18.348,2.488 -6.328,1.66 -12.031,3.984 -17.109,6.992 l 7.46,15.242 c 5.079,-2.898 9.922,-5.047 14.551,-6.453 4.61,-1.394 9.199,-2.098 13.75,-2.098 4.883,0 8.66,1.012 11.356,3.036 2.695,2.019 4.043,4.953 4.043,8.789 0,2.898 -1.141,5.461 -3.418,7.695 -2.285,2.227 -7.364,5 -15.242,8.32 -5.911,2.493 -10.235,4.532 -12.989,6.145 -2.746,1.601 -5.097,3.289 -7.07,5.047 -3.008,2.695 -5.234,5.73 -6.691,9.101 -1.454,3.371 -2.176,7.129 -2.176,11.282 0,8.398 3.008,15.214 9.023,20.449 6.016,5.23 13.946,7.851 23.789,7.851 5.703,0 11.309,-0.754 16.797,-2.257 5.496,-1.504 10.731,-3.653 15.703,-6.454 l -6.836,-15.078 c -4.765,2.481 -9.257,4.344 -13.457,5.594 -4.199,1.242 -8.261,1.867 -12.207,1.867 -4.25,0 -7.597,-0.988 -10.031,-2.961 -2.43,-1.961 -3.652,-4.558 -3.652,-7.773 0,-2.899 1.164,-5.496 3.496,-7.774 2.336,-2.285 7.492,-5.183 15.48,-8.711 5.703,-2.597 9.903,-4.668 12.598,-6.218 2.695,-1.555 4.98,-3.215 6.836,-4.981 3.113,-2.59 5.39,-5.547 6.844,-8.859 1.457,-3.32 2.179,-7 2.179,-11.043"
         style="fill:#1bab9a;fill-opacity:1;fill-rule:nonzero;stroke:none"
         transform="matrix(0.13333333,0,0,-0.13333333,0,145.06667)" />
      <path
         id="path9"
         d="m 539.848,693.566 c 0,4.875 -1.535,8.418 -4.59,10.657 -3.067,2.226 -7.91,3.34 -14.555,3.34 h -13.055 v -28.77 h 13.997 c 6.113,0 10.683,1.211 13.691,3.652 3.008,2.43 4.512,6.141 4.512,11.121 z m -4.043,42.61 c 0,4.148 -1.328,7.207 -3.965,9.179 -2.656,1.961 -6.719,2.95 -12.207,2.95 h -11.985 v -25.657 h 11.985 c 5.379,0 9.422,1.133 12.129,3.418 2.691,2.278 4.043,5.657 4.043,10.11 z m -46.977,27.84 h 33.125 c 10.375,0 18.52,-2.176 24.418,-6.532 5.918,-4.355 8.867,-10.48 8.867,-18.351 0,-5.293 -1.32,-9.903 -3.965,-13.848 -2.636,-3.933 -6.406,-6.941 -11.269,-9.012 6.316,-1.867 11.113,-4.796 14.375,-8.789 3.269,-3.996 4.902,-8.949 4.902,-14.855 0,-9.121 -3.136,-16.309 -9.414,-21.543 -6.269,-5.234 -14.687,-7.852 -25.265,-7.852 h -35.774 v 100.782"
         style="fill:#1bab9a;fill-opacity:1;fill-rule:nonzero;stroke:none"
         transform="matrix(0.13333333,0,0,-0.13333333,0,145.06667)" />
      <path
         id="path10"
         d="m 717.453,750.793 v -87.246 h -15.555 v 87.246 h -30.324 v 13.535 h 76.203 v -13.535 h -30.324"
         style="fill:#1bab9a;fill-opacity:1;fill-rule:nonzero;stroke:none"
         transform="matrix(0.13333333,0,0,-0.13333333,0,145.06667)" />
      <path
         id="path11"
         d="m 790.004,676.926 h 45.566 v -13.379 h -61.269 v 100.781 h 61.269 v -13.535 h -45.566 v -29.395 h 38.73 v -13.527 h -38.73 v -30.945"
         style="fill:#1bab9a;fill-opacity:1;fill-rule:nonzero;stroke:none"
         transform="matrix(0.13333333,0,0,-0.13333333,0,145.06667)" />
      <path
         id="path12"
         d="m 903.734,661.992 c -13.586,0 -23.925,4.457 -31.027,13.379 -7.098,8.918 -10.652,21.926 -10.652,39.035 0,16.067 3.711,28.664 11.109,37.793 7.426,9.121 17.66,13.684 30.727,13.684 5.293,0 10.214,-0.645 14.765,-1.945 4.571,-1.297 9.082,-3.34 13.535,-6.141 l -7.152,-12.285 c -3.531,2.176 -7.027,3.777 -10.504,4.824 -3.469,1.031 -6.914,1.551 -10.332,1.551 -8.613,0 -15.09,-3.133 -19.445,-9.414 -4.356,-6.27 -6.531,-15.625 -6.531,-28.067 0,-12.957 2.128,-22.625 6.375,-29.004 4.25,-6.375 10.781,-9.57 19.601,-9.57 4.043,0 7.711,0.52 11.035,1.563 3.321,1.035 7.157,2.902 11.512,5.597 l 6.691,-11.515 c -4.355,-3.106 -9.082,-5.469 -14.16,-7.071 -5.078,-1.609 -10.254,-2.414 -15.547,-2.414"
         style="fill:#1bab9a;fill-opacity:1;fill-rule:nonzero;stroke:none"
         transform="matrix(0.13333333,0,0,-0.13333333,0,145.06667)" />
      <path
         id="path13"
         d="m 976.438,709.27 v -45.723 h -15.711 v 100.781 h 15.711 v -41.523 h 36.862 v 41.523 h 15.71 V 663.547 h -15.71 v 45.723 h -36.862"
         style="fill:#1bab9a;fill-opacity:1;fill-rule:nonzero;stroke:none"
         transform="matrix(0.13333333,0,0,-0.13333333,0,145.06667)" />
      <path
         id="path14"
         d="m 1128.09,663.547 h -19.12 l -33.13,80.41 v -80.41 h -13.85 v 100.781 h 18.99 l 33.28,-80.555 v 80.555 h 13.83 V 663.547"
         style="fill:#1bab9a;fill-opacity:1;fill-rule:nonzero;stroke:none"
         transform="matrix(0.13333333,0,0,-0.13333333,0,145.06667)" />
      <path
         id="path15"
         d="m 1223.34,676.926 v -13.379 h -67.03 v 13.379 h 25.82 v 73.867 h -25.35 v 13.535 h 66.09 v -13.535 h -25.35 v -73.867 h 25.82"
         style="fill:#1bab9a;fill-opacity:1;fill-rule:nonzero;stroke:none"
         transform="matrix(0.13333333,0,0,-0.13333333,0,145.06667)" />
      <path
         id="path16"
         d="m 1288.85,661.992 c -13.57,0 -23.93,4.457 -31.02,13.379 -7.1,8.918 -10.66,21.926 -10.66,39.035 0,16.067 3.71,28.664 11.12,37.793 7.42,9.121 17.65,13.684 30.72,13.684 5.29,0 10.21,-0.645 14.77,-1.945 4.56,-1.297 9.07,-3.34 13.53,-6.141 l -7.15,-12.285 c -3.53,2.176 -7.02,3.777 -10.5,4.824 -3.47,1.031 -6.92,1.551 -10.34,1.551 -8.6,0 -15.08,-3.133 -19.43,-9.414 -4.36,-6.27 -6.55,-15.625 -6.55,-28.067 0,-12.957 2.13,-22.625 6.39,-29.004 4.25,-6.375 10.78,-9.57 19.59,-9.57 4.04,0 7.72,0.52 11.04,1.563 3.31,1.035 7.16,2.902 11.52,5.597 l 6.68,-11.515 c -4.36,-3.106 -9.08,-5.469 -14.15,-7.071 -5.09,-1.609 -10.27,-2.414 -15.56,-2.414"
         style="fill:#1bab9a;fill-opacity:1;fill-rule:nonzero;stroke:none"
         transform="matrix(0.13333333,0,0,-0.13333333,0,145.06667)" />
      <path
         id="path17"
         d="m 1362.73,690.297 v -26.75 h -15.72 v 100.781 h 15.72 v -53.191 l 38.72,53.191 h 17.11 l -29.87,-41.055 33.13,-59.726 h -18.19 l -25.97,47.285 -14.93,-20.535"
         style="fill:#1bab9a;fill-opacity:1;fill-rule:nonzero;stroke:none"
         transform="matrix(0.13333333,0,0,-0.13333333,0,145.06667)" />
      <path
         id="path18"
         d="m 1482.91,775.063 h -14 l 16.33,23.945 11.98,-8.867 z m -7.16,-21.934 -13.83,-49.609 h 27.52 z m 40.76,-89.582 h -16.02 l -7.47,26.75 h -34.68 l -7.47,-26.75 h -15.4 l 29.4,100.781 h 22.24 l 29.4,-100.781"
         style="fill:#1bab9a;fill-opacity:1;fill-rule:nonzero;stroke:none"
         transform="matrix(0.13333333,0,0,-0.13333333,0,145.06667)" />
      <path
         id="path19"
         d="m 709.984,489.211 c 5.918,0 10.469,1.66 13.692,4.973 3.211,3.32 4.82,8.035 4.82,14.16 v 69.355 h 15.238 v -69.355 c 0,-9.961 -3.086,-17.942 -9.257,-23.957 -6.164,-6.016 -14.329,-9.024 -24.493,-9.024 -10.254,0 -18.535,3.008 -24.804,9.024 -6.27,6.015 -9.407,13.996 -9.407,23.957 v 69.355 h 15.715 v -69.355 c 0,-6.125 1.602,-10.84 4.813,-14.16 3.215,-3.313 7.785,-4.973 13.683,-4.973"
         style="fill:#1bab9a;fill-opacity:1;fill-rule:nonzero;stroke:none"
         transform="matrix(0.13333333,0,0,-0.13333333,0,145.06667)" />
      <path
         id="path20"
         d="m 842.699,476.926 h -19.121 l -33.125,80.398 v -80.398 h -13.848 v 100.773 h 18.985 l 33.281,-80.558 v 80.558 h 13.828 V 476.926"
         style="fill:#1bab9a;fill-opacity:1;fill-rule:nonzero;stroke:none"
         transform="matrix(0.13333333,0,0,-0.13333333,0,145.06667)" />
      <path
         id="path21"
         d="m 937.953,490.297 v -13.371 h -67.031 v 13.371 h 25.82 v 73.875 h -25.351 v 13.527 h 66.093 v -13.527 h -25.351 v -73.875 h 25.82"
         style="fill:#1bab9a;fill-opacity:1;fill-rule:nonzero;stroke:none"
         transform="matrix(0.13333333,0,0,-0.13333333,0,145.06667)" />
      <path
         id="path22"
         d="m 1033.6,577.699 -28.15,-100.773 h -22.235 l -28.152,100.773 h 16.328 l 23.183,-88.488 23.166,88.488 h 15.86"
         style="fill:#1bab9a;fill-opacity:1;fill-rule:nonzero;stroke:none"
         transform="matrix(0.13333333,0,0,-0.13333333,0,145.06667)" />
      <path
         id="path23"
         d="m 1075.29,490.297 h 45.56 v -13.371 h -61.28 v 100.773 h 61.28 v -13.527 h -45.56 v -29.395 h 38.72 v -13.535 h -38.72 v -30.945"
         style="fill:#1bab9a;fill-opacity:1;fill-rule:nonzero;stroke:none"
         transform="matrix(0.13333333,0,0,-0.13333333,0,145.06667)" />
      <path
         id="path24"
         d="m 1203.64,548.156 c 0,5.078 -1.58,9.016 -4.73,11.817 -3.17,2.793 -7.55,4.199 -13.15,4.199 h -18.51 V 531.66 h 18.51 c 5.71,0 10.11,1.43 13.23,4.281 3.1,2.852 4.65,6.922 4.65,12.215 z m -36.39,-30.019 v -41.211 h -15.7 v 100.773 h 34.37 c 10.25,0 18.43,-2.59 24.49,-7.773 6.07,-5.188 9.1,-12.348 9.1,-21.465 0,-7.148 -1.73,-13.137 -5.21,-17.961 -3.48,-4.824 -8.48,-8.223 -15.01,-10.184 l 23.95,-43.39 h -17.73 l -21.92,41.211 h -16.34"
         style="fill:#1bab9a;fill-opacity:1;fill-rule:nonzero;stroke:none"
         transform="matrix(0.13333333,0,0,-0.13333333,0,145.06667)" />
      <path
         id="path25"
         d="m 1311.89,490.297 v -13.371 h -65.95 v 8.855 l 45.57,78.391 h -44.79 v 13.527 h 64.4 v -9.015 l -45.42,-78.387 h 46.19"
         style="fill:#1bab9a;fill-opacity:1;fill-rule:nonzero;stroke:none"
         transform="matrix(0.13333333,0,0,-0.13333333,0,145.06667)" />
      <path
         id="path26"
         d="m 1402.25,490.297 v -13.371 h -67.03 v 13.371 h 25.82 v 73.875 h -25.35 v 13.527 h 66.09 v -13.527 h -25.35 v -73.875 h 25.82"
         style="fill:#1bab9a;fill-opacity:1;fill-rule:nonzero;stroke:none"
         transform="matrix(0.13333333,0,0,-0.13333333,0,145.06667)" />
      <path
         id="path27"
         d="m 1465.77,564.172 v -87.246 h -15.55 v 87.246 h -30.33 v 13.527 h 76.21 v -13.527 h -30.33"
         style="fill:#1bab9a;fill-opacity:1;fill-rule:nonzero;stroke:none"
         transform="matrix(0.13333333,0,0,-0.13333333,0,145.06667)" />
      <path
         id="path28"
         d="m 1541.47,566.508 -13.85,-49.61 h 27.53 z m 40.74,-89.582 h -16.02 l -7.46,26.75 h -34.68 l -7.47,-26.75 h -15.4 l 29.4,100.773 h 22.23 l 29.4,-100.773"
         style="fill:#1bab9a;fill-opacity:1;fill-rule:nonzero;stroke:none"
         transform="matrix(0.13333333,0,0,-0.13333333,0,145.06667)" />
      <path
         id="path29"
         d="m 688.215,341.156 c 0,-13.273 1.73,-23.019 5.207,-29.238 3.476,-6.223 8.887,-9.328 16.25,-9.328 7.469,0 12.937,3.058 16.414,9.172 3.469,6.121 5.203,15.605 5.203,28.465 0,13.058 -1.734,22.722 -5.203,29.003 -3.477,6.27 -8.945,9.407 -16.414,9.407 -7.461,0 -12.902,-3.008 -16.328,-9.016 -3.418,-6.016 -5.129,-15.508 -5.129,-28.465 z m 59.25,-0.929 c 0,-16.7 -3.242,-29.454 -9.719,-38.262 -6.473,-8.809 -15.832,-13.223 -28.074,-13.223 -12.539,0 -21.953,4.356 -28.223,13.067 -6.269,8.711 -9.414,21.828 -9.414,39.347 0,16.59 3.27,29.317 9.805,38.184 6.531,8.863 15.808,13.301 27.832,13.301 12.656,0 22.109,-4.356 28.387,-13.067 6.269,-8.711 9.406,-21.828 9.406,-39.347"
         style="fill:#1bab9a;fill-opacity:1;fill-rule:nonzero;stroke:none"
         transform="matrix(0.13333333,0,0,-0.13333333,0,145.06667)" />
      <path
         id="path30"
         d="m 836.664,317.211 c 0,-8.613 -3.066,-15.5 -9.18,-20.684 -6.113,-5.187 -14.355,-7.785 -24.726,-7.785 -5.813,0 -11.77,0.84 -17.891,2.492 -6.113,1.661 -11.601,3.993 -16.484,7 l 6.695,12.286 c 4.973,-2.903 9.738,-5.028 14.301,-6.375 4.57,-1.348 9.117,-2.024 13.691,-2.024 5.594,0 9.95,1.223 13.067,3.652 3.105,2.442 4.668,5.938 4.668,10.5 0,3.321 -1.25,6.278 -3.742,8.868 -2.489,2.586 -7.977,5.703 -16.485,9.336 -5.703,2.476 -9.902,4.5 -12.598,6.062 -2.695,1.555 -4.968,3.156 -6.843,4.816 -3.008,2.696 -5.235,5.68 -6.684,8.946 -1.453,3.262 -2.183,6.922 -2.183,10.965 0,8.086 2.91,14.668 8.71,19.746 5.809,5.078 13.426,7.629 22.872,7.629 5.488,0 10.878,-0.735 16.171,-2.18 5.282,-1.453 10.411,-3.582 15.391,-6.375 l -6.223,-12.285 c -4.558,2.48 -8.914,4.324 -13.054,5.515 -4.153,1.192 -8.203,1.789 -12.129,1.789 -4.981,0 -8.899,-1.195 -11.75,-3.574 -2.852,-2.394 -4.278,-5.547 -4.278,-9.496 0,-3.316 1.27,-6.238 3.809,-8.777 2.539,-2.547 8.059,-5.684 16.574,-9.414 5.586,-2.586 9.735,-4.641 12.442,-6.145 2.683,-1.5 4.968,-3.082 6.836,-4.746 3.105,-2.691 5.39,-5.672 6.836,-8.933 1.464,-3.274 2.187,-6.875 2.187,-10.809"
         style="fill:#1bab9a;fill-opacity:1;fill-rule:nonzero;stroke:none"
         transform="matrix(0.13333333,0,0,-0.13333333,0,145.06667)" />
      <path
         id="path31"
         d="m 899.953,377.551 v -87.246 h -15.555 v 87.246 h -30.324 v 13.523 h 76.203 v -13.523 h -30.324"
         style="fill:#1bab9a;fill-opacity:1;fill-rule:nonzero;stroke:none"
         transform="matrix(0.13333333,0,0,-0.13333333,0,145.06667)" />
      <path
         id="path32"
         d="m 1008.65,361.535 c 0,5.078 -1.58,9.016 -4.73,11.817 -3.17,2.793 -7.549,4.199 -13.135,4.199 H 972.27 v -32.508 h 18.515 c 5.692,0 10.095,1.426 13.215,4.277 3.11,2.852 4.65,6.922 4.65,12.215 z m -36.38,-30.019 v -41.211 h -15.704 v 100.769 h 34.364 c 10.26,0 18.43,-2.586 24.5,-7.769 6.06,-5.188 9.09,-12.344 9.09,-21.465 0,-7.149 -1.73,-13.137 -5.2,-17.961 -3.48,-4.824 -8.48,-8.223 -15.02,-10.184 l 23.95,-43.39 h -17.72 l -21.932,41.211 H 972.27"
         style="fill:#1bab9a;fill-opacity:1;fill-rule:nonzero;stroke:none"
         transform="matrix(0.13333333,0,0,-0.13333333,0,145.06667)" />
      <path
         id="path33"
         d="m 1088.7,379.887 -13.83,-49.61 h 27.52 z m 40.76,-89.582 h -16.02 l -7.47,26.75 h -34.68 l -7.47,-26.75 h -15.4 l 29.39,100.769 h 22.25 l 29.4,-100.769"
         style="fill:#1bab9a;fill-opacity:1;fill-rule:nonzero;stroke:none"
         transform="matrix(0.13333333,0,0,-0.13333333,0,145.06667)" />
      <path
         id="path34"
         d="m 1216.16,391.074 -28.14,-100.769 h -22.24 l -28.15,100.769 h 16.33 l 23.17,-88.484 23.18,88.484 h 15.85"
         style="fill:#1bab9a;fill-opacity:1;fill-rule:nonzero;stroke:none"
         transform="matrix(0.13333333,0,0,-0.13333333,0,145.06667)" />
      <path
         id="path35"
         d="m 1264.7,379.887 -13.84,-49.61 h 27.52 z m 40.75,-89.582 h -16.01 l -7.47,26.75 h -34.68 l -7.47,-26.75 h -15.4 l 29.39,100.769 h 22.25 l 29.39,-100.769"
         style="fill:#1bab9a;fill-opacity:1;fill-rule:nonzero;stroke:none"
         transform="matrix(0.13333333,0,0,-0.13333333,0,145.06667)" />
      <path
         id="path36"
         d="m 1822.34,706.406 v -42.769 h -15.56 v 100.781 h 61.12 v -13.535 h -45.56 v -30.949 h 38.72 v -13.528 h -38.72"
         style="fill:#38bed8;fill-opacity:1;fill-rule:nonzero;stroke:none"
         transform="matrix(0.13333333,0,0,-0.13333333,0,145.06667)" />
      <path
         id="path37"
         d="m 1922.15,753.215 -13.85,-49.61 h 27.53 z m 40.74,-89.578 h -16.01 l -7.46,26.746 h -34.69 l -7.46,-26.746 h -15.4 l 29.39,100.781 h 22.24 l 29.39,-100.781"
         style="fill:#38bed8;fill-opacity:1;fill-rule:nonzero;stroke:none"
         transform="matrix(0.13333333,0,0,-0.13333333,0,145.06667)" />
      <path
         id="path38"
         d="m 2003.97,690.383 v -26.746 h -15.71 v 100.781 h 15.71 v -53.195 l 38.72,53.195 h 17.11 l -29.86,-41.055 33.13,-59.726 h -18.2 l -25.98,47.285 -14.92,-20.539"
         style="fill:#38bed8;fill-opacity:1;fill-rule:nonzero;stroke:none"
         transform="matrix(0.13333333,0,0,-0.13333333,0,145.06667)" />
      <path
         id="path39"
         d="m 2118.65,675.922 c 5.92,0 10.47,1.656 13.7,4.98 3.21,3.321 4.82,8.036 4.82,14.149 v 69.367 h 15.23 v -69.367 c 0,-9.949 -3.08,-17.938 -9.25,-23.946 -6.17,-6.015 -14.33,-9.023 -24.5,-9.023 -10.25,0 -18.53,3.008 -24.8,9.023 -6.27,6.008 -9.4,13.997 -9.4,23.946 v 69.367 h 15.71 v -69.367 c 0,-6.113 1.6,-10.828 4.81,-14.149 3.22,-3.324 7.79,-4.98 13.68,-4.98"
         style="fill:#38bed8;fill-opacity:1;fill-rule:nonzero;stroke:none"
         transform="matrix(0.13333333,0,0,-0.13333333,0,145.06667)" />
      <path
         id="path40"
         d="m 2203.16,677.016 h 47.27 v -13.379 h -62.99 v 100.781 h 15.72 v -87.402"
         style="fill:#38bed8;fill-opacity:1;fill-rule:nonzero;stroke:none"
         transform="matrix(0.13333333,0,0,-0.13333333,0,145.06667)" />
      <path
         id="path41"
         d="m 2298.64,750.883 v -87.246 h -15.55 v 87.246 h -30.33 v 13.535 h 76.21 v -13.535 h -30.33"
         style="fill:#38bed8;fill-opacity:1;fill-rule:nonzero;stroke:none"
         transform="matrix(0.13333333,0,0,-0.13333333,0,145.06667)" />
      <path
         id="path42"
         d="m 2375.88,753.215 -13.83,-49.61 h 27.52 z m 40.75,-89.578 h -16.01 l -7.47,26.746 h -34.68 L 2351,663.637 h -15.39 L 2365,764.418 h 22.25 l 29.38,-100.781"
         style="fill:#38bed8;fill-opacity:1;fill-rule:nonzero;stroke:none"
         transform="matrix(0.13333333,0,0,-0.13333333,0,145.06667)" />
      <path
         id="path43"
         d="m 1821.72,490.383 h 45.57 v -13.367 h -61.28 v 100.769 h 61.28 v -13.523 h -45.57 v -29.395 h 38.72 v -13.539 h -38.72 v -30.945"
         style="fill:#38bed8;fill-opacity:1;fill-rule:nonzero;stroke:none"
         transform="matrix(0.13333333,0,0,-0.13333333,0,145.06667)" />
      <path
         id="path44"
         d="m 1915.54,490.383 h 47.27 v -13.367 h -62.98 v 100.769 h 15.71 v -87.402"
         style="fill:#38bed8;fill-opacity:1;fill-rule:nonzero;stroke:none"
         transform="matrix(0.13333333,0,0,-0.13333333,0,145.06667)" />
      <path
         id="path45"
         d="m 2002.31,490.383 h 45.56 v -13.367 h -61.28 v 100.769 h 61.28 v -13.523 h -45.56 v -29.395 h 38.72 v -13.539 h -38.72 v -30.945"
         style="fill:#38bed8;fill-opacity:1;fill-rule:nonzero;stroke:none"
         transform="matrix(0.13333333,0,0,-0.13333333,0,145.06667)" />
      <path
         id="path46"
         d="m 2094.59,503.762 v -26.746 h -15.71 v 100.769 h 15.71 v -53.183 l 38.71,53.183 h 17.11 l -29.85,-41.055 33.12,-59.714 h -18.19 l -25.98,47.273 -14.92,-20.527"
         style="fill:#38bed8;fill-opacity:1;fill-rule:nonzero;stroke:none"
         transform="matrix(0.13333333,0,0,-0.13333333,0,145.06667)" />
      <path
         id="path47"
         d="m 2212.64,564.262 v -87.246 h -15.55 v 87.246 h -30.33 v 13.523 h 76.21 v -13.523 h -30.33"
         style="fill:#38bed8;fill-opacity:1;fill-rule:nonzero;stroke:none"
         transform="matrix(0.13333333,0,0,-0.13333333,0,145.06667)" />
      <path
         id="path48"
         d="m 2321.35,548.242 c 0,5.082 -1.58,9.016 -4.75,11.821 -3.16,2.792 -7.54,4.199 -13.14,4.199 h -18.51 V 531.75 h 18.51 c 5.7,0 10.12,1.426 13.22,4.277 3.11,2.852 4.67,6.922 4.67,12.215 z m -36.4,-30.015 v -41.211 h -15.71 v 100.769 h 34.38 c 10.26,0 18.43,-2.586 24.49,-7.773 6.07,-5.188 9.1,-12.344 9.1,-21.465 0,-7.149 -1.74,-13.137 -5.22,-17.957 -3.47,-4.824 -8.47,-8.223 -15,-10.188 l 23.95,-43.386 h -17.72 l -21.93,41.211 h -16.34"
         style="fill:#38bed8;fill-opacity:1;fill-rule:nonzero;stroke:none"
         transform="matrix(0.13333333,0,0,-0.13333333,0,145.06667)" />
      <path
         id="path49"
         d="m 2377.87,527.863 c 0,-13.269 1.74,-23.015 5.22,-29.238 3.47,-6.219 8.88,-9.324 16.25,-9.324 7.46,0 12.93,3.054 16.4,9.168 3.48,6.125 5.22,15.605 5.22,28.469 0,13.054 -1.74,22.722 -5.22,29.003 -3.47,6.27 -8.94,9.403 -16.4,9.403 -7.46,0 -12.91,-3.008 -16.33,-9.016 -3.42,-6.012 -5.14,-15.504 -5.14,-28.465 z m 59.26,-0.925 c 0,-16.7 -3.24,-29.454 -9.73,-38.262 -6.47,-8.809 -15.83,-13.227 -28.06,-13.227 -12.54,0 -21.95,4.36 -28.22,13.071 -6.28,8.71 -9.42,21.824 -9.42,39.343 0,16.59 3.26,29.317 9.81,38.184 6.52,8.867 15.8,13.301 27.83,13.301 12.65,0 22.11,-4.356 28.38,-13.067 6.27,-8.711 9.41,-21.828 9.41,-39.343"
         style="fill:#38bed8;fill-opacity:1;fill-rule:nonzero;stroke:none"
         transform="matrix(0.13333333,0,0,-0.13333333,0,145.06667)" />
      <path
         id="path50"
         d="m 2501.52,564.262 v -87.246 h -15.56 v 87.246 h -30.32 v 13.523 h 76.2 v -13.523 h -30.32"
         style="fill:#38bed8;fill-opacity:1;fill-rule:nonzero;stroke:none"
         transform="matrix(0.13333333,0,0,-0.13333333,0,145.06667)" />
      <path
         id="path51"
         d="m 2575.62,490.383 h 45.56 v -13.367 h -61.28 v 100.769 h 61.28 v -13.523 h -45.56 v -29.395 h 38.72 v -13.539 h -38.72 v -30.945"
         style="fill:#38bed8;fill-opacity:1;fill-rule:nonzero;stroke:none"
         transform="matrix(0.13333333,0,0,-0.13333333,0,145.06667)" />
      <path
         id="path52"
         d="m 2689.35,475.449 c -13.59,0 -23.93,4.465 -31.03,13.379 -7.11,8.918 -10.65,21.938 -10.65,39.035 0,16.075 3.7,28.672 11.12,37.793 7.4,9.121 17.65,13.692 30.71,13.692 5.29,0 10.21,-0.653 14.78,-1.953 4.56,-1.29 9.06,-3.34 13.53,-6.141 l -7.16,-12.285 c -3.52,2.176 -7.01,3.789 -10.49,4.824 -3.48,1.031 -6.93,1.551 -10.35,1.551 -8.6,0 -15.08,-3.133 -19.44,-9.403 -4.35,-6.281 -6.53,-15.636 -6.53,-28.078 0,-12.957 2.12,-22.625 6.38,-29.004 4.26,-6.375 10.78,-9.558 19.59,-9.558 4.04,0 7.73,0.515 11.05,1.551 3.31,1.035 7.15,2.902 11.51,5.597 l 6.68,-11.504 c -4.36,-3.117 -9.07,-5.468 -14.15,-7.082 -5.08,-1.601 -10.27,-2.414 -15.55,-2.414"
         style="fill:#38bed8;fill-opacity:1;fill-rule:nonzero;stroke:none"
         transform="matrix(0.13333333,0,0,-0.13333333,0,145.06667)" />
      <path
         id="path53"
         d="m 2762.05,522.738 v -45.722 h -15.7 v 100.769 h 15.7 v -41.523 h 36.86 v 41.523 h 15.7 V 477.016 h -15.7 v 45.722 h -36.86"
         style="fill:#38bed8;fill-opacity:1;fill-rule:nonzero;stroke:none"
         transform="matrix(0.13333333,0,0,-0.13333333,0,145.06667)" />
      <path
         id="path54"
         d="m 2913.71,477.016 h -19.12 l -33.12,80.398 v -80.398 h -13.85 v 100.769 h 18.97 l 33.29,-80.555 v 80.555 h 13.83 V 477.016"
         style="fill:#38bed8;fill-opacity:1;fill-rule:nonzero;stroke:none"
         transform="matrix(0.13333333,0,0,-0.13333333,0,145.06667)" />
      <path
         id="path55"
         d="m 3008.95,490.383 v -13.367 h -67.03 v 13.367 h 25.82 v 73.879 h -25.35 v 13.523 h 66.09 v -13.523 h -25.34 v -73.879 h 25.81"
         style="fill:#38bed8;fill-opacity:1;fill-rule:nonzero;stroke:none"
         transform="matrix(0.13333333,0,0,-0.13333333,0,145.06667)" />
      <path
         id="path56"
         d="m 3053.58,503.762 v -26.746 h -15.72 v 100.769 h 15.72 v -53.183 l 38.71,53.183 h 17.11 l -29.86,-41.055 33.13,-59.714 h -18.19 l -25.98,47.273 -14.92,-20.527"
         style="fill:#38bed8;fill-opacity:1;fill-rule:nonzero;stroke:none"
         transform="matrix(0.13333333,0,0,-0.13333333,0,145.06667)" />
      <path
         id="path57"
         d="m 3172.81,516.047 v -39.031 h -15.71 v 39.031 l -32.2,61.738 h 16.8 l 23.64,-47.117 23.49,47.117 h 15.86 l -31.88,-61.738"
         style="fill:#38bed8;fill-opacity:1;fill-rule:nonzero;stroke:none"
         transform="matrix(0.13333333,0,0,-0.13333333,0,145.06667)" />
      <path
         id="path58"
         d="m 1834.62,379.973 -13.84,-49.61 h 27.52 z m 40.75,-89.578 h -16.01 l -7.47,26.746 h -34.68 l -7.47,-26.746 h -15.4 l 29.39,100.769 h 22.25 l 29.39,-100.769"
         style="fill:#38bed8;fill-opacity:1;fill-rule:nonzero;stroke:none"
         transform="matrix(0.13333333,0,0,-0.13333333,0,145.06667)" />
      <path
         id="path59"
         d="m 2022.34,303.762 v -13.367 h -67.03 v 13.367 h 25.82 v 73.879 h -25.36 v 13.523 h 66.1 v -13.523 h -25.34 v -73.879 h 25.81"
         style="fill:#38bed8;fill-opacity:1;fill-rule:nonzero;stroke:none"
         transform="matrix(0.13333333,0,0,-0.13333333,0,145.06667)" />
      <path
         id="path60"
         d="m 2116.72,290.395 h -19.13 l -33.12,80.398 v -80.398 h -13.84 v 100.769 h 18.96 l 33.28,-80.555 v 80.555 h 13.85 V 290.395"
         style="fill:#38bed8;fill-opacity:1;fill-rule:nonzero;stroke:none"
         transform="matrix(0.13333333,0,0,-0.13333333,0,145.06667)" />
      <path
         id="path61"
         d="m 2168.19,333.156 v -42.761 h -15.55 v 100.769 h 61.11 v -13.523 h -45.56 v -30.95 h 38.73 v -13.535 h -38.73"
         style="fill:#38bed8;fill-opacity:1;fill-rule:nonzero;stroke:none"
         transform="matrix(0.13333333,0,0,-0.13333333,0,145.06667)" />
      <path
         id="path62"
         d="m 2252.7,341.242 c 0,-13.269 1.74,-23.015 5.21,-29.238 3.48,-6.219 8.89,-9.324 16.25,-9.324 7.46,0 12.93,3.054 16.41,9.168 3.48,6.125 5.21,15.605 5.21,28.468 0,13.055 -1.73,22.723 -5.21,29.004 -3.48,6.27 -8.95,9.403 -16.41,9.403 -7.46,0 -12.91,-3.008 -16.33,-9.012 -3.41,-6.016 -5.13,-15.512 -5.13,-28.469 z m 59.26,-0.926 c 0,-16.699 -3.25,-29.453 -9.73,-38.261 -6.48,-8.813 -15.83,-13.227 -28.07,-13.227 -12.54,0 -21.95,4.36 -28.22,13.07 -6.28,8.711 -9.41,21.825 -9.41,39.344 0,16.594 3.26,29.317 9.8,38.184 6.52,8.867 15.8,13.301 27.83,13.301 12.66,0 22.11,-4.356 28.38,-13.067 6.27,-8.711 9.42,-21.824 9.42,-39.344"
         style="fill:#38bed8;fill-opacity:1;fill-rule:nonzero;stroke:none"
         transform="matrix(0.13333333,0,0,-0.13333333,0,145.06667)" />
      <path
         id="path63"
         d="m 2393.81,361.621 c 0,5.078 -1.58,9.016 -4.74,11.82 -3.16,2.793 -7.54,4.2 -13.13,4.2 h -18.52 v -32.512 h 18.52 c 5.69,0 10.1,1.426 13.21,4.277 3.12,2.852 4.66,6.922 4.66,12.215 z m -36.39,-30.016 v -41.21 h -15.7 v 100.769 h 34.37 c 10.26,0 18.42,-2.59 24.5,-7.773 6.05,-5.188 9.09,-12.344 9.09,-21.465 0,-7.149 -1.74,-13.133 -5.21,-17.957 -3.47,-4.824 -8.47,-8.227 -15.01,-10.188 l 23.95,-43.386 h -17.72 l -21.94,41.21 h -16.33"
         style="fill:#38bed8;fill-opacity:1;fill-rule:nonzero;stroke:none"
         transform="matrix(0.13333333,0,0,-0.13333333,0,145.06667)" />
      <path
         id="path64"
         d="m 2451.99,370.012 v -79.617 h -13.83 v 100.769 h 18.19 l 19.6,-50.691 19.29,50.691 h 18.03 V 290.395 h -13.83 v 79.617 l -18.05,-46.184 h -11.35 l -18.05,46.184"
         style="fill:#38bed8;fill-opacity:1;fill-rule:nonzero;stroke:none"
         transform="matrix(0.13333333,0,0,-0.13333333,0,145.06667)" />
      <path
         id="path65"
         d="m 2576.06,379.973 -13.85,-49.61 h 27.53 z m 40.74,-89.578 h -16.02 l -7.46,26.746 h -34.68 l -7.47,-26.746 h -15.4 l 29.4,100.769 h 22.23 l 29.4,-100.769"
         style="fill:#38bed8;fill-opacity:1;fill-rule:nonzero;stroke:none"
         transform="matrix(0.13333333,0,0,-0.13333333,0,145.06667)" />
      <path
         id="path66"
         d="m 2670.8,377.641 v -87.246 h -15.55 v 87.246 h -30.33 v 13.523 h 76.21 v -13.523 h -30.33"
         style="fill:#38bed8;fill-opacity:1;fill-rule:nonzero;stroke:none"
         transform="matrix(0.13333333,0,0,-0.13333333,0,145.06667)" />
      <path
         id="path67"
         d="m 2785.88,303.762 v -13.367 h -67.03 v 13.367 h 25.82 v 73.879 h -25.35 v 13.523 h 66.09 v -13.523 h -25.35 v -73.879 h 25.82"
         style="fill:#38bed8;fill-opacity:1;fill-rule:nonzero;stroke:none"
         transform="matrix(0.13333333,0,0,-0.13333333,0,145.06667)" />
      <path
         id="path68"
         d="m 2830.49,317.141 v -26.746 h -15.7 v 100.769 h 15.7 V 337.98 l 38.73,53.184 h 17.11 l -29.86,-41.055 33.12,-59.714 h -18.2 l -25.97,47.273 -14.93,-20.527"
         style="fill:#38bed8;fill-opacity:1;fill-rule:nonzero;stroke:none"
         transform="matrix(0.13333333,0,0,-0.13333333,0,145.06667)" />
      <path
         id="path69"
         d="m 2949.73,329.426 v -39.031 h -15.7 v 39.031 l -32.19,61.738 h 16.79 l 23.64,-47.117 23.47,47.117 h 15.87 l -31.88,-61.738"
         style="fill:#38bed8;fill-opacity:1;fill-rule:nonzero;stroke:none"
         transform="matrix(0.13333333,0,0,-0.13333333,0,145.06667)" />
      <path
         id="path70"
         d="m 1701.53,289.359 h -16 v 475 h 16 v -475"
         style="fill:#38bed8;fill-opacity:1;fill-rule:nonzero;stroke:none"
         transform="matrix(0.13333333,0,0,-0.13333333,0,145.06667)" />
    </g>
  </g>
</svg>
