<?xml version="1.0" encoding="UTF-8" standalone="no"?>
<!-- Created with Inkscape (http://www.inkscape.org/) -->

<svg
   version="1.1"
   id="svg1"
   width="578.85333"
   height="145.06667"
   viewBox="0 0 578.85333 145.06667"
   sodipodi:docname="FEI EN.svg"
   inkscape:version="1.3.2 (091e20ef0f, 2023-11-25, custom)"
   xmlns:inkscape="http://www.inkscape.org/namespaces/inkscape"
   xmlns:sodipodi="http://sodipodi.sourceforge.net/DTD/sodipodi-0.dtd"
   xmlns="http://www.w3.org/2000/svg"
   xmlns:svg="http://www.w3.org/2000/svg">
  <defs
     id="defs1" />
  <sodipodi:namedview
     id="namedview1"
     pagecolor="#ffffff"
     bordercolor="#000000"
     borderopacity="0.25"
     inkscape:showpageshadow="2"
     inkscape:pageopacity="0.0"
     inkscape:pagecheckerboard="0"
     inkscape:deskcolor="#d1d1d1"
     inkscape:zoom="1.3785875"
     inkscape:cx="289.42667"
     inkscape:cy="72.538012"
     inkscape:window-width="1920"
     inkscape:window-height="1052"
     inkscape:window-x="0"
     inkscape:window-y="0"
     inkscape:window-maximized="1"
     inkscape:current-layer="g1">
    <inkscape:page
       x="0"
       y="0"
       inkscape:label="1"
       id="page1"
       width="578.85333"
       height="145.06667"
       margin="0"
       bleed="0" />
  </sodipodi:namedview>
  <g
     id="g1"
     inkscape:groupmode="layer"
     inkscape:label="1">
    <g
       id="group-R5">
      <path
         id="path2"
         d="m 1836.04,706.406 v -42.773 h -15.56 v 100.781 h 61.12 v -13.535 h -45.56 V 719.93 h 38.72 v -13.524 h -38.72"
         style="fill:#38bed8;fill-opacity:1;fill-rule:nonzero;stroke:none"
         transform="matrix(0.13333333,0,0,-0.13333333,0,145.06667)" />
      <path
         id="path3"
         d="m 1934.29,753.211 -13.84,-49.609 h 27.52 z m 40.75,-89.578 h -16.01 l -7.47,26.746 h -34.68 l -7.47,-26.746 h -15.4 l 29.39,100.781 h 22.25 l 29.39,-100.781"
         style="fill:#38bed8;fill-opacity:1;fill-rule:nonzero;stroke:none"
         transform="matrix(0.13333333,0,0,-0.13333333,0,145.06667)" />
      <path
         id="path4"
         d="m 2033.73,662.078 c -13.59,0 -23.92,4.453 -31.03,13.379 -7.1,8.918 -10.65,21.926 -10.65,39.035 0,16.063 3.7,28.66 11.12,37.793 7.41,9.121 17.65,13.68 30.72,13.68 5.28,0 10.2,-0.645 14.76,-1.942 4.57,-1.3 9.08,-3.339 13.54,-6.144 l -7.16,-12.285 c -3.52,2.179 -7.02,3.781 -10.5,4.824 -3.47,1.035 -6.91,1.555 -10.34,1.555 -8.6,0 -15.09,-3.137 -19.44,-9.414 -4.36,-6.27 -6.53,-15.625 -6.53,-28.067 0,-12.961 2.12,-22.629 6.37,-29.004 4.26,-6.379 10.78,-9.57 19.6,-9.57 4.04,0 7.73,0.516 11.05,1.562 3.32,1.036 7.15,2.899 11.5,5.594 l 6.69,-11.511 c -4.36,-3.106 -9.07,-5.469 -14.15,-7.071 -5.08,-1.613 -10.26,-2.414 -15.55,-2.414"
         style="fill:#38bed8;fill-opacity:1;fill-rule:nonzero;stroke:none"
         transform="matrix(0.13333333,0,0,-0.13333333,0,145.06667)" />
      <path
         id="path5"
         d="m 2122.83,675.918 c 5.92,0 10.47,1.66 13.7,4.98 3.21,3.321 4.82,8.036 4.82,14.149 v 69.367 h 15.23 v -69.367 c 0,-9.949 -3.08,-17.938 -9.25,-23.945 -6.17,-6.016 -14.33,-9.024 -24.5,-9.024 -10.25,0 -18.53,3.008 -24.8,9.024 -6.27,6.007 -9.4,13.996 -9.4,23.945 v 69.367 h 15.71 v -69.367 c 0,-6.113 1.6,-10.828 4.81,-14.149 3.22,-3.32 7.79,-4.98 13.68,-4.98"
         style="fill:#38bed8;fill-opacity:1;fill-rule:nonzero;stroke:none"
         transform="matrix(0.13333333,0,0,-0.13333333,0,145.06667)" />
      <path
         id="path6"
         d="m 2207.33,677.012 h 47.28 v -13.379 h -62.99 v 100.781 h 15.71 v -87.402"
         style="fill:#38bed8;fill-opacity:1;fill-rule:nonzero;stroke:none"
         transform="matrix(0.13333333,0,0,-0.13333333,0,145.06667)" />
      <path
         id="path7"
         d="m 2302.81,750.879 v -87.246 h -15.54 v 87.246 h -30.33 v 13.535 h 76.21 v -13.535 h -30.34"
         style="fill:#38bed8;fill-opacity:1;fill-rule:nonzero;stroke:none"
         transform="matrix(0.13333333,0,0,-0.13333333,0,145.06667)" />
      <path
         id="path8"
         d="m 2394.3,702.664 v -39.031 h -15.7 v 39.031 l -32.2,61.75 h 16.79 l 23.65,-47.129 23.47,47.129 h 15.86 l -31.87,-61.75"
         style="fill:#38bed8;fill-opacity:1;fill-rule:nonzero;stroke:none"
         transform="matrix(0.13333333,0,0,-0.13333333,0,145.06667)" />
      <path
         id="path9"
         d="m 2518.71,714.492 c 0,-13.273 1.73,-23.019 5.21,-29.238 3.47,-6.223 8.89,-9.336 16.25,-9.336 7.47,0 12.94,3.055 16.41,9.18 3.47,6.113 5.21,15.605 5.21,28.457 0,13.066 -1.74,22.734 -5.21,29.004 -3.47,6.277 -8.94,9.414 -16.41,9.414 -7.47,0 -12.9,-3.008 -16.33,-9.024 -3.43,-6.015 -5.13,-15.5 -5.13,-28.457 z m 59.25,-0.937 c 0,-16.692 -3.24,-29.446 -9.72,-38.254 -6.48,-8.817 -15.84,-13.223 -28.07,-13.223 -12.55,0 -21.95,4.356 -28.23,13.067 -6.27,8.71 -9.41,21.816 -9.41,39.347 0,16.582 3.27,29.317 9.8,38.172 6.54,8.867 15.82,13.301 27.84,13.301 12.64,0 22.11,-4.356 28.39,-13.067 6.27,-8.699 9.4,-21.824 9.4,-39.343"
         style="fill:#38bed8;fill-opacity:1;fill-rule:nonzero;stroke:none"
         transform="matrix(0.13333333,0,0,-0.13333333,0,145.06667)" />
      <path
         id="path10"
         d="m 2625.44,706.406 v -42.773 h -15.55 v 100.781 h 61.12 v -13.535 h -45.57 V 719.93 h 38.72 v -13.524 h -38.72"
         style="fill:#38bed8;fill-opacity:1;fill-rule:nonzero;stroke:none"
         transform="matrix(0.13333333,0,0,-0.13333333,0,145.06667)" />
      <path
         id="path11"
         d="m 2778.78,677.012 h 45.57 v -13.379 h -61.28 v 100.781 h 61.28 v -13.535 h -45.57 v -29.395 h 38.72 v -13.527 h -38.72 v -30.945"
         style="fill:#38bed8;fill-opacity:1;fill-rule:nonzero;stroke:none"
         transform="matrix(0.13333333,0,0,-0.13333333,0,145.06667)" />
      <path
         id="path12"
         d="m 2872.6,677.012 h 47.29 v -13.379 h -62.99 v 100.781 h 15.7 v -87.402"
         style="fill:#38bed8;fill-opacity:1;fill-rule:nonzero;stroke:none"
         transform="matrix(0.13333333,0,0,-0.13333333,0,145.06667)" />
      <path
         id="path13"
         d="m 2959.37,677.012 h 45.56 v -13.379 h -61.28 v 100.781 h 61.28 v -13.535 h -45.56 v -29.395 h 38.72 v -13.527 h -38.72 v -30.945"
         style="fill:#38bed8;fill-opacity:1;fill-rule:nonzero;stroke:none"
         transform="matrix(0.13333333,0,0,-0.13333333,0,145.06667)" />
      <path
         id="path14"
         d="m 3073.1,662.078 c -13.59,0 -23.93,4.453 -31.03,13.379 -7.11,8.918 -10.65,21.926 -10.65,39.035 0,16.063 3.7,28.66 11.12,37.793 7.4,9.121 17.65,13.68 30.71,13.68 5.29,0 10.21,-0.645 14.78,-1.942 4.56,-1.3 9.06,-3.339 13.53,-6.144 l -7.16,-12.285 c -3.52,2.179 -7.01,3.781 -10.49,4.824 -3.48,1.035 -6.93,1.555 -10.35,1.555 -8.6,0 -15.08,-3.137 -19.44,-9.414 -4.35,-6.27 -6.53,-15.625 -6.53,-28.067 0,-12.961 2.12,-22.629 6.38,-29.004 4.26,-6.379 10.78,-9.57 19.59,-9.57 4.04,0 7.73,0.516 11.05,1.562 3.31,1.036 7.15,2.899 11.51,5.594 l 6.68,-11.511 c -4.36,-3.106 -9.07,-5.469 -14.15,-7.071 -5.08,-1.613 -10.27,-2.414 -15.55,-2.414"
         style="fill:#38bed8;fill-opacity:1;fill-rule:nonzero;stroke:none"
         transform="matrix(0.13333333,0,0,-0.13333333,0,145.06667)" />
      <path
         id="path15"
         d="m 3165.57,750.879 v -87.246 h -15.55 v 87.246 h -30.33 v 13.535 h 76.21 v -13.535 h -30.33"
         style="fill:#38bed8;fill-opacity:1;fill-rule:nonzero;stroke:none"
         transform="matrix(0.13333333,0,0,-0.13333333,0,145.06667)" />
      <path
         id="path16"
         d="m 3272.72,734.863 c 0,5.078 -1.58,9.024 -4.75,11.817 -3.16,2.8 -7.54,4.199 -13.13,4.199 h -18.51 v -32.5 h 18.51 c 5.69,0 10.1,1.426 13.21,4.277 3.11,2.852 4.67,6.922 4.67,12.207 z m -36.39,-30.019 v -41.211 h -15.71 v 100.781 h 34.36 c 10.28,0 18.44,-2.598 24.5,-7.773 6.07,-5.188 9.1,-12.344 9.1,-21.465 0,-7.16 -1.74,-13.145 -5.21,-17.969 -3.47,-4.816 -8.47,-8.215 -15.01,-10.187 l 23.95,-43.387 h -17.72 l -21.93,41.211 h -16.33"
         style="fill:#38bed8;fill-opacity:1;fill-rule:nonzero;stroke:none"
         transform="matrix(0.13333333,0,0,-0.13333333,0,145.06667)" />
      <path
         id="path17"
         d="m 3383,677.012 v -13.379 h -67.03 v 13.379 h 25.82 v 73.867 h -25.35 v 13.535 h 66.09 v -13.535 h -25.34 V 677.012 H 3383"
         style="fill:#38bed8;fill-opacity:1;fill-rule:nonzero;stroke:none"
         transform="matrix(0.13333333,0,0,-0.13333333,0,145.06667)" />
      <path
         id="path18"
         d="m 3446.97,662.078 c -13.59,0 -23.93,4.453 -31.03,13.379 -7.11,8.918 -10.65,21.926 -10.65,39.035 0,16.063 3.7,28.66 11.12,37.793 7.4,9.121 17.65,13.68 30.71,13.68 5.28,0 10.21,-0.645 14.78,-1.942 4.56,-1.3 9.06,-3.339 13.52,-6.144 l -7.16,-12.285 c -3.51,2.179 -7.01,3.781 -10.48,4.824 -3.48,1.035 -6.93,1.555 -10.36,1.555 -8.59,0 -15.07,-3.137 -19.43,-9.414 -4.35,-6.27 -6.53,-15.625 -6.53,-28.067 0,-12.961 2.12,-22.629 6.37,-29.004 4.26,-6.379 10.79,-9.57 19.59,-9.57 4.05,0 7.74,0.516 11.06,1.562 3.31,1.036 7.15,2.899 11.5,5.594 l 6.68,-11.511 c -4.35,-3.106 -9.06,-5.469 -14.14,-7.071 -5.09,-1.613 -10.27,-2.414 -15.55,-2.414"
         style="fill:#38bed8;fill-opacity:1;fill-rule:nonzero;stroke:none"
         transform="matrix(0.13333333,0,0,-0.13333333,0,145.06667)" />
      <path
         id="path19"
         d="m 3534.16,753.211 -13.85,-49.609 h 27.53 z m 40.74,-89.578 h -16.01 l -7.46,26.746 h -34.69 l -7.46,-26.746 h -15.4 l 29.39,100.781 h 22.24 l 29.39,-100.781"
         style="fill:#38bed8;fill-opacity:1;fill-rule:nonzero;stroke:none"
         transform="matrix(0.13333333,0,0,-0.13333333,0,145.06667)" />
      <path
         id="path20"
         d="m 3617.52,677.012 h 47.28 v -13.379 h -62.98 v 100.781 h 15.7 v -87.402"
         style="fill:#38bed8;fill-opacity:1;fill-rule:nonzero;stroke:none"
         transform="matrix(0.13333333,0,0,-0.13333333,0,145.06667)" />
      <path
         id="path21"
         d="m 1835.41,490.379 h 45.57 v -13.367 h -61.27 v 100.769 h 61.27 v -13.523 h -45.57 v -29.395 h 38.73 v -13.535 h -38.73 v -30.949"
         style="fill:#38bed8;fill-opacity:1;fill-rule:nonzero;stroke:none"
         transform="matrix(0.13333333,0,0,-0.13333333,0,145.06667)" />
      <path
         id="path22"
         d="m 1977.46,477.012 h -19.13 l -33.12,80.398 v -80.398 h -13.84 v 100.769 h 18.96 l 33.29,-80.554 v 80.554 h 13.84 V 477.012"
         style="fill:#38bed8;fill-opacity:1;fill-rule:nonzero;stroke:none"
         transform="matrix(0.13333333,0,0,-0.13333333,0,145.06667)" />
      <path
         id="path23"
         d="m 2049.59,475.449 c -13.79,0 -24.29,4.434 -31.49,13.301 -7.21,8.867 -10.81,21.902 -10.81,39.109 0,16.282 3.68,28.926 11.04,37.95 7.36,9.023 17.68,13.535 30.95,13.535 5.18,0 10,-0.574 14.46,-1.719 4.47,-1.141 8.81,-2.949 13.06,-5.437 l -6.84,-12.598 c -3.22,1.863 -6.56,3.289 -10.03,4.277 -3.47,0.985 -6.92,1.473 -10.34,1.473 -8.82,0 -15.37,-3.086 -19.68,-9.246 -4.3,-6.172 -6.45,-15.586 -6.45,-28.235 0,-12.957 2.18,-22.625 6.53,-29.004 4.36,-6.375 10.99,-9.558 19.91,-9.558 2.7,0 5.16,0.203 7.39,0.625 2.22,0.41 4.48,1.082 6.77,2.019 v 34.055 h 14.93 v -41.523 c -4.05,-2.793 -8.67,-5 -13.85,-6.614 -5.18,-1.601 -10.37,-2.41 -15.55,-2.41"
         style="fill:#38bed8;fill-opacity:1;fill-rule:nonzero;stroke:none"
         transform="matrix(0.13333333,0,0,-0.13333333,0,145.06667)" />
      <path
         id="path24"
         d="m 2173.07,490.379 v -13.367 h -67.03 v 13.367 h 25.82 v 73.879 h -25.35 v 13.523 h 66.09 v -13.523 h -25.34 v -73.879 h 25.81"
         style="fill:#38bed8;fill-opacity:1;fill-rule:nonzero;stroke:none"
         transform="matrix(0.13333333,0,0,-0.13333333,0,145.06667)" />
      <path
         id="path25"
         d="m 2267.45,477.012 h -19.13 l -33.12,80.398 v -80.398 h -13.84 v 100.769 h 18.97 l 33.29,-80.554 v 80.554 h 13.83 V 477.012"
         style="fill:#38bed8;fill-opacity:1;fill-rule:nonzero;stroke:none"
         transform="matrix(0.13333333,0,0,-0.13333333,0,145.06667)" />
      <path
         id="path26"
         d="m 2318.71,490.379 h 45.57 v -13.367 h -61.27 v 100.769 h 61.27 v -13.523 h -45.57 v -29.395 h 38.73 v -13.535 h -38.73 v -30.949"
         style="fill:#38bed8;fill-opacity:1;fill-rule:nonzero;stroke:none"
         transform="matrix(0.13333333,0,0,-0.13333333,0,145.06667)" />
      <path
         id="path27"
         d="m 2412.46,490.379 h 45.57 v -13.367 h -61.28 v 100.769 h 61.28 v -13.523 h -45.57 v -29.395 h 38.72 v -13.535 h -38.72 v -30.949"
         style="fill:#38bed8;fill-opacity:1;fill-rule:nonzero;stroke:none"
         transform="matrix(0.13333333,0,0,-0.13333333,0,145.06667)" />
      <path
         id="path28"
         d="m 2540.82,548.242 c 0,5.078 -1.58,9.012 -4.74,11.817 -3.17,2.793 -7.54,4.199 -13.14,4.199 h -18.5 v -32.512 h 18.5 c 5.7,0 10.11,1.426 13.21,4.277 3.12,2.852 4.67,6.926 4.67,12.219 z m -36.38,-30.019 v -41.211 h -15.72 v 100.769 h 34.37 c 10.27,0 18.44,-2.586 24.5,-7.773 6.06,-5.184 9.09,-12.344 9.09,-21.465 0,-7.148 -1.74,-13.133 -5.2,-17.957 -3.48,-4.824 -8.48,-8.223 -15.01,-10.188 l 23.94,-43.386 h -17.71 l -21.94,41.211 h -16.32"
         style="fill:#38bed8;fill-opacity:1;fill-rule:nonzero;stroke:none"
         transform="matrix(0.13333333,0,0,-0.13333333,0,145.06667)" />
      <path
         id="path29"
         d="m 2651.1,490.379 v -13.367 h -67.04 v 13.367 h 25.83 v 73.879 h -25.36 v 13.523 h 66.1 v -13.523 h -25.34 v -73.879 h 25.81"
         style="fill:#38bed8;fill-opacity:1;fill-rule:nonzero;stroke:none"
         transform="matrix(0.13333333,0,0,-0.13333333,0,145.06667)" />
      <path
         id="path30"
         d="m 2745.49,477.012 h -19.13 l -33.13,80.398 v -80.398 h -13.83 v 100.769 h 18.96 l 33.28,-80.554 v 80.554 h 13.85 V 477.012"
         style="fill:#38bed8;fill-opacity:1;fill-rule:nonzero;stroke:none"
         transform="matrix(0.13333333,0,0,-0.13333333,0,145.06667)" />
      <path
         id="path31"
         d="m 2817.62,475.449 c -13.79,0 -24.3,4.434 -31.49,13.301 -7.21,8.867 -10.82,21.902 -10.82,39.109 0,16.282 3.69,28.926 11.05,37.95 7.35,9.023 17.68,13.535 30.95,13.535 5.17,0 10,-0.574 14.46,-1.719 4.46,-1.141 8.81,-2.949 13.06,-5.437 l -6.84,-12.598 c -3.22,1.863 -6.56,3.289 -10.03,4.277 -3.48,0.985 -6.92,1.473 -10.34,1.473 -8.82,0 -15.37,-3.086 -19.68,-9.246 -4.3,-6.172 -6.45,-15.586 -6.45,-28.235 0,-12.957 2.17,-22.625 6.53,-29.004 4.36,-6.375 10.99,-9.558 19.91,-9.558 2.7,0 5.16,0.203 7.38,0.625 2.23,0.41 4.49,1.082 6.77,2.019 v 34.055 h 14.93 v -41.523 c -4.04,-2.793 -8.66,-5 -13.84,-6.614 -5.18,-1.601 -10.37,-2.41 -15.55,-2.41"
         style="fill:#38bed8;fill-opacity:1;fill-rule:nonzero;stroke:none"
         transform="matrix(0.13333333,0,0,-0.13333333,0,145.06667)" />
      <path
         id="path32"
         d="m 2973.13,566.59 -13.83,-49.61 h 27.52 z m 40.75,-89.578 h -16.02 l -7.47,26.746 h -34.67 l -7.48,-26.746 h -15.39 l 29.4,100.769 h 22.24 l 29.39,-100.769"
         style="fill:#38bed8;fill-opacity:1;fill-rule:nonzero;stroke:none"
         transform="matrix(0.13333333,0,0,-0.13333333,0,145.06667)" />
      <path
         id="path33"
         d="m 3106.27,477.012 h -19.12 l -33.12,80.398 v -80.398 h -13.85 v 100.769 h 18.97 l 33.28,-80.554 v 80.554 h 13.84 V 477.012"
         style="fill:#38bed8;fill-opacity:1;fill-rule:nonzero;stroke:none"
         transform="matrix(0.13333333,0,0,-0.13333333,0,145.06667)" />
      <path
         id="path34"
         d="m 3193.94,527.246 c 0,12.539 -2.12,21.797 -6.38,27.754 -4.26,5.965 -10.84,8.945 -19.75,8.945 h -12.91 v -73.254 h 12.91 c 8.91,0 15.49,2.981 19.75,8.946 4.26,5.957 6.38,15.168 6.38,27.609 z m -26.13,-50.234 h -28.45 v 100.769 h 28.45 c 14,0 24.55,-4.218 31.65,-12.676 7.1,-8.445 10.66,-21.062 10.66,-37.859 0,-16.183 -3.66,-28.594 -10.98,-37.246 -7.3,-8.664 -17.75,-12.988 -31.33,-12.988"
         style="fill:#38bed8;fill-opacity:1;fill-rule:nonzero;stroke:none"
         transform="matrix(0.13333333,0,0,-0.13333333,0,145.06667)" />
      <path
         id="path35"
         d="m 3342.62,475.449 c -13.59,0 -23.93,4.461 -31.04,13.379 -7.1,8.914 -10.64,21.934 -10.64,39.031 0,16.075 3.7,28.672 11.11,37.793 7.42,9.121 17.66,13.692 30.73,13.692 5.28,0 10.2,-0.653 14.76,-1.953 4.57,-1.289 9.07,-3.34 13.54,-6.141 l -7.16,-12.285 c -3.53,2.176 -7.02,3.789 -10.5,4.824 -3.48,1.035 -6.91,1.551 -10.34,1.551 -8.6,0 -15.09,-3.133 -19.44,-9.402 -4.36,-6.282 -6.53,-15.637 -6.53,-28.079 0,-12.957 2.12,-22.625 6.37,-29.004 4.26,-6.375 10.78,-9.558 19.6,-9.558 4.04,0 7.72,0.516 11.04,1.551 3.32,1.035 7.15,2.902 11.51,5.597 l 6.69,-11.504 c -4.36,-3.117 -9.08,-5.468 -14.15,-7.082 -5.08,-1.601 -10.27,-2.41 -15.55,-2.41"
         style="fill:#38bed8;fill-opacity:1;fill-rule:nonzero;stroke:none"
         transform="matrix(0.13333333,0,0,-0.13333333,0,145.06667)" />
      <path
         id="path36"
         d="m 3409.32,527.859 c 0,-13.269 1.73,-23.015 5.2,-29.238 3.47,-6.219 8.89,-9.324 16.25,-9.324 7.47,0 12.94,3.055 16.42,9.168 3.47,6.125 5.21,15.605 5.21,28.469 0,13.054 -1.74,22.722 -5.21,29.004 -3.48,6.269 -8.95,9.402 -16.42,9.402 -7.47,0 -12.9,-3.008 -16.32,-9.012 -3.43,-6.015 -5.13,-15.508 -5.13,-28.469 z m 59.25,-0.925 c 0,-16.7 -3.25,-29.454 -9.72,-38.262 -6.48,-8.809 -15.84,-13.223 -28.08,-13.223 -12.54,0 -21.95,4.356 -28.23,13.067 -6.27,8.711 -9.4,21.824 -9.4,39.343 0,16.594 3.27,29.317 9.79,38.184 6.55,8.867 15.82,13.301 27.84,13.301 12.65,0 22.11,-4.356 28.39,-13.067 6.27,-8.711 9.41,-21.824 9.41,-39.343"
         style="fill:#38bed8;fill-opacity:1;fill-rule:nonzero;stroke:none"
         transform="matrix(0.13333333,0,0,-0.13333333,0,145.06667)" />
      <path
         id="path37"
         d="m 3509.62,556.629 v -79.617 h -13.84 v 100.769 h 18.2 l 19.6,-50.691 19.27,50.691 h 18.05 V 477.012 h -13.85 v 79.617 l -18.03,-46.18 h -11.36 l -18.04,46.18"
         style="fill:#38bed8;fill-opacity:1;fill-rule:nonzero;stroke:none"
         transform="matrix(0.13333333,0,0,-0.13333333,0,145.06667)" />
      <path
         id="path38"
         d="m 3655.61,546.836 c 0,5.496 -1.69,9.773 -5.06,12.832 -3.37,3.055 -8.01,4.59 -13.92,4.59 h -17.88 v -35.461 h 17.88 c 6.13,0 10.81,1.555 14.08,4.668 3.26,3.105 4.9,7.558 4.9,13.371 z m -36.86,-31.418 v -38.406 h -15.71 v 100.769 h 34.05 c 10.48,0 18.83,-2.715 25.04,-8.164 6.23,-5.437 9.34,-12.929 9.34,-22.469 0,-10.058 -3.09,-17.863 -9.26,-23.41 -6.16,-5.547 -14.53,-8.32 -25.12,-8.32 h -18.34"
         style="fill:#38bed8;fill-opacity:1;fill-rule:nonzero;stroke:none"
         transform="matrix(0.13333333,0,0,-0.13333333,0,145.06667)" />
      <path
         id="path39"
         d="m 3731.65,489.297 c 5.92,0 10.47,1.66 13.69,4.969 3.21,3.32 4.83,8.039 4.83,14.16 v 69.355 h 15.23 v -69.355 c 0,-9.961 -3.08,-17.938 -9.25,-23.953 -6.18,-6.016 -14.34,-9.024 -24.5,-9.024 -10.27,0 -18.53,3.008 -24.8,9.024 -6.28,6.015 -9.41,13.992 -9.41,23.953 v 69.355 h 15.71 v -69.355 c 0,-6.121 1.61,-10.84 4.81,-14.16 3.22,-3.309 7.77,-4.969 13.69,-4.969"
         style="fill:#38bed8;fill-opacity:1;fill-rule:nonzero;stroke:none"
         transform="matrix(0.13333333,0,0,-0.13333333,0,145.06667)" />
      <path
         id="path40"
         d="m 3833.62,564.258 v -87.246 h -15.56 v 87.246 h -30.32 v 13.523 h 76.2 v -13.523 h -30.32"
         style="fill:#38bed8;fill-opacity:1;fill-rule:nonzero;stroke:none"
         transform="matrix(0.13333333,0,0,-0.13333333,0,145.06667)" />
      <path
         id="path41"
         d="m 3904.6,490.379 h 45.57 v -13.367 h -61.28 v 100.769 h 61.28 v -13.523 h -45.57 v -29.395 h 38.72 v -13.535 h -38.72 v -30.949"
         style="fill:#38bed8;fill-opacity:1;fill-rule:nonzero;stroke:none"
         transform="matrix(0.13333333,0,0,-0.13333333,0,145.06667)" />
      <path
         id="path42"
         d="m 4032.97,548.242 c 0,5.078 -1.58,9.012 -4.74,11.817 -3.17,2.793 -7.54,4.199 -13.14,4.199 h -18.51 v -32.512 h 18.51 c 5.7,0 10.11,1.426 13.21,4.277 3.12,2.852 4.67,6.926 4.67,12.219 z m -36.39,-30.019 v -41.211 h -15.71 v 100.769 h 34.38 c 10.26,0 18.42,-2.586 24.49,-7.773 6.06,-5.184 9.1,-12.344 9.1,-21.465 0,-7.148 -1.74,-13.133 -5.21,-17.957 -3.48,-4.824 -8.48,-8.223 -15.01,-10.188 l 23.95,-43.386 h -17.73 l -21.93,41.211 h -16.33"
         style="fill:#38bed8;fill-opacity:1;fill-rule:nonzero;stroke:none"
         transform="matrix(0.13333333,0,0,-0.13333333,0,145.06667)" />
      <path
         id="path43"
         d="m 1881.76,317.293 c 0,-8.613 -3.07,-15.496 -9.18,-20.684 -6.11,-5.183 -14.36,-7.781 -24.73,-7.781 -5.81,0 -11.76,0.84 -17.89,2.488 -6.11,1.661 -11.6,3.997 -16.48,7.004 l 6.7,12.285 c 4.97,-2.902 9.73,-5.031 14.29,-6.378 4.58,-1.348 9.13,-2.02 13.7,-2.02 5.59,0 9.95,1.219 13.06,3.652 3.11,2.442 4.67,5.938 4.67,10.496 0,3.321 -1.25,6.282 -3.74,8.868 -2.49,2.59 -7.98,5.703 -16.48,9.336 -5.71,2.48 -9.91,4.504 -12.6,6.066 -2.7,1.551 -4.97,3.152 -6.85,4.813 -3.01,2.695 -5.23,5.683 -6.68,8.945 -1.45,3.262 -2.18,6.926 -2.18,10.969 0,8.086 2.91,14.668 8.71,19.746 5.81,5.078 13.42,7.625 22.87,7.625 5.49,0 10.88,-0.731 16.17,-2.176 5.28,-1.457 10.41,-3.586 15.39,-6.379 l -6.22,-12.285 c -4.56,2.48 -8.92,4.328 -13.06,5.519 -4.15,1.192 -8.2,1.786 -12.13,1.786 -4.98,0 -8.89,-1.192 -11.74,-3.575 -2.86,-2.39 -4.28,-5.547 -4.28,-9.492 0,-3.32 1.27,-6.238 3.81,-8.777 2.54,-2.551 8.05,-5.684 16.57,-9.414 5.59,-2.59 9.74,-4.641 12.44,-6.145 2.69,-1.504 4.97,-3.086 6.84,-4.746 3.1,-2.695 5.39,-5.672 6.83,-8.934 1.47,-3.273 2.19,-6.875 2.19,-10.812"
         style="fill:#38bed8;fill-opacity:1;fill-rule:nonzero;stroke:none"
         transform="matrix(0.13333333,0,0,-0.13333333,0,145.06667)" />
      <path
         id="path44"
         d="m 1949.09,288.828 c -13.58,0 -23.92,4.461 -31.02,13.379 -7.11,8.914 -10.66,21.934 -10.66,39.031 0,16.075 3.71,28.672 11.13,37.793 7.4,9.121 17.64,13.692 30.71,13.692 5.28,0 10.21,-0.653 14.78,-1.953 4.56,-1.29 9.06,-3.34 13.52,-6.141 l -7.16,-12.285 c -3.51,2.176 -7.01,3.789 -10.49,4.824 -3.47,1.035 -6.92,1.551 -10.35,1.551 -8.59,0 -15.08,-3.133 -19.43,-9.403 -4.36,-6.281 -6.53,-15.636 -6.53,-28.078 0,-12.957 2.12,-22.625 6.37,-29.004 4.26,-6.375 10.78,-9.558 19.59,-9.558 4.05,0 7.74,0.515 11.06,1.551 3.31,1.035 7.15,2.902 11.5,5.597 l 6.68,-11.504 c -4.35,-3.117 -9.06,-5.468 -14.14,-7.082 -5.09,-1.601 -10.27,-2.41 -15.56,-2.41"
         style="fill:#38bed8;fill-opacity:1;fill-rule:nonzero;stroke:none"
         transform="matrix(0.13333333,0,0,-0.13333333,0,145.06667)" />
      <path
         id="path45"
         d="m 2067.21,303.758 v -13.367 h -67.03 v 13.367 H 2026 v 73.879 h -25.35 v 13.523 h 66.09 v -13.523 h -25.35 v -73.879 h 25.82"
         style="fill:#38bed8;fill-opacity:1;fill-rule:nonzero;stroke:none"
         transform="matrix(0.13333333,0,0,-0.13333333,0,145.06667)" />
      <path
         id="path46"
         d="m 2113.3,303.758 h 45.57 V 290.391 H 2097.6 V 391.16 h 61.27 v -13.523 h -45.57 v -29.395 h 38.73 v -13.535 h -38.73 v -30.949"
         style="fill:#38bed8;fill-opacity:1;fill-rule:nonzero;stroke:none"
         transform="matrix(0.13333333,0,0,-0.13333333,0,145.06667)" />
      <path
         id="path47"
         d="m 2255.35,290.391 h -19.12 l -33.12,80.398 v -80.398 h -13.85 V 391.16 h 18.97 l 33.29,-80.555 v 80.555 h 13.83 V 290.391"
         style="fill:#38bed8;fill-opacity:1;fill-rule:nonzero;stroke:none"
         transform="matrix(0.13333333,0,0,-0.13333333,0,145.06667)" />
      <path
         id="path48"
         d="m 2328.03,288.828 c -13.58,0 -23.93,4.461 -31.03,13.379 -7.1,8.914 -10.65,21.934 -10.65,39.031 0,16.075 3.71,28.672 11.11,37.793 7.43,9.121 17.66,13.692 30.73,13.692 5.29,0 10.21,-0.653 14.76,-1.953 4.57,-1.29 9.08,-3.34 13.54,-6.141 l -7.15,-12.285 c -3.54,2.176 -7.03,3.789 -10.51,4.824 -3.47,1.035 -6.91,1.551 -10.33,1.551 -8.61,0 -15.09,-3.133 -19.44,-9.403 -4.36,-6.281 -6.54,-15.636 -6.54,-28.078 0,-12.957 2.13,-22.625 6.38,-29.004 4.25,-6.375 10.78,-9.558 19.6,-9.558 4.04,0 7.71,0.515 11.03,1.551 3.32,1.035 7.16,2.902 11.52,5.597 l 6.69,-11.504 c -4.36,-3.117 -9.09,-5.468 -14.16,-7.082 -5.08,-1.601 -10.26,-2.41 -15.55,-2.41"
         style="fill:#38bed8;fill-opacity:1;fill-rule:nonzero;stroke:none"
         transform="matrix(0.13333333,0,0,-0.13333333,0,145.06667)" />
      <path
         id="path49"
         d="m 2403.36,303.758 h 45.57 v -13.367 h -61.27 V 391.16 h 61.27 v -13.523 h -45.57 v -29.395 h 38.73 v -13.535 h -38.73 v -30.949"
         style="fill:#38bed8;fill-opacity:1;fill-rule:nonzero;stroke:none"
         transform="matrix(0.13333333,0,0,-0.13333333,0,145.06667)" />
      <path
         id="path50"
         d="m 1712.42,288.934 h -15.99 v 475 h 15.99 v -475"
         style="fill:#38bed8;fill-opacity:1;fill-rule:nonzero;stroke:none"
         transform="matrix(0.13333333,0,0,-0.13333333,0,145.06667)" />
      <path
         id="path51"
         d="m 308.617,392.313 h -15.996 v 186.796 h 15.996 V 392.313"
         style="fill:#1bab9a;fill-opacity:1;fill-rule:nonzero;stroke:none"
         transform="matrix(0.13333333,0,0,-0.13333333,0,145.06667)" />
      <path
         id="path52"
         d="m 493.012,341.023 h -15.996 v 186.895 h 15.996 V 341.023"
         style="fill:#1bab9a;fill-opacity:1;fill-rule:nonzero;stroke:none"
         transform="matrix(0.13333333,0,0,-0.13333333,0,145.06667)" />
      <path
         id="path53"
         d="m 554.484,392.313 h -15.996 v 186.796 h 15.996 V 392.313"
         style="fill:#1bab9a;fill-opacity:1;fill-rule:nonzero;stroke:none"
         transform="matrix(0.13333333,0,0,-0.13333333,0,145.06667)" />
      <path
         id="path54"
         d="m 431.547,289.734 h -15.996 v 186.817 h 15.996 V 289.734"
         style="fill:#1bab9a;fill-opacity:1;fill-rule:nonzero;stroke:none"
         transform="matrix(0.13333333,0,0,-0.13333333,0,145.06667)" />
      <path
         id="path55"
         d="m 370.078,341.102 h -15.992 v 186.816 h 15.992 V 341.102"
         style="fill:#1bab9a;fill-opacity:1;fill-rule:nonzero;stroke:none"
         transform="matrix(0.13333333,0,0,-0.13333333,0,145.06667)" />
      <path
         id="path56"
         d="M 369.543,763.992 342.484,663.223 h -26.593 l -27.063,100.769 h 19.438 l 21.308,-85.691 21.153,85.691 h 18.816"
         style="fill:#1bab9a;fill-opacity:1;fill-rule:nonzero;stroke:none"
         transform="matrix(0.13333333,0,0,-0.13333333,0,145.06667)" />
      <path
         id="path57"
         d="m 459.906,690.898 c 0,-8.918 -3.117,-16.015 -9.336,-21.3 -6.222,-5.293 -14.668,-7.938 -25.351,-7.938 -5.91,0 -12.031,0.84 -18.352,2.488 -6.316,1.661 -12.019,3.997 -17.097,7.004 l 7.46,15.243 c 5.079,-2.911 9.922,-5.059 14.54,-6.454 4.609,-1.406 9.199,-2.101 13.761,-2.101 4.871,0 8.653,1.008 11.348,3.027 2.695,2.024 4.043,4.953 4.043,8.789 0,2.903 -1.133,5.469 -3.418,7.696 -2.285,2.238 -7.363,5 -15.234,8.32 -5.918,2.492 -10.247,4.543 -12.989,6.144 -2.754,1.61 -5.109,3.289 -7.07,5.059 -3.008,2.695 -5.246,5.723 -6.699,9.102 -1.446,3.359 -2.168,7.117 -2.168,11.269 0,8.399 3.008,15.215 9.023,20.449 6.004,5.235 13.934,7.86 23.789,7.86 5.703,0 11.297,-0.762 16.797,-2.254 5.488,-1.504 10.723,-3.664 15.703,-6.457 l -6.836,-15.086 c -4.777,2.488 -9.257,4.355 -13.457,5.594 -4.199,1.25 -8.273,1.867 -12.207,1.867 -4.258,0 -7.597,-0.989 -10.039,-2.949 -2.433,-1.973 -3.652,-4.563 -3.652,-7.774 0,-2.91 1.172,-5.5 3.496,-7.785 2.344,-2.273 7.5,-5.184 15.488,-8.711 5.692,-2.586 9.891,-4.656 12.598,-6.219 2.683,-1.554 4.969,-3.215 6.836,-4.972 3.105,-2.598 5.39,-5.547 6.836,-8.868 1.453,-3.32 2.187,-6.992 2.187,-11.043"
         style="fill:#1bab9a;fill-opacity:1;fill-rule:nonzero;stroke:none"
         transform="matrix(0.13333333,0,0,-0.13333333,0,145.06667)" />
      <path
         id="path58"
         d="m 539.836,693.543 c 0,4.875 -1.531,8.43 -4.578,10.656 -3.067,2.227 -7.91,3.34 -14.555,3.34 H 507.641 V 678.77 h 14.004 c 6.113,0 10.671,1.218 13.679,3.66 3.008,2.433 4.512,6.144 4.512,11.113 z m -4.043,42.617 c 0,4.141 -1.316,7.199 -3.965,9.172 -2.644,1.973 -6.707,2.957 -12.207,2.957 h -11.98 v -25.664 h 11.98 c 5.383,0 9.426,1.145 12.129,3.43 2.695,2.273 4.043,5.644 4.043,10.105 z m -46.965,27.832 h 33.125 c 10.363,0 18.508,-2.176 24.418,-6.531 5.906,-4.348 8.867,-10.469 8.867,-18.352 0,-5.281 -1.328,-9.902 -3.965,-13.836 -2.648,-3.945 -6.406,-6.945 -11.281,-9.023 6.321,-1.867 11.125,-4.797 14.387,-8.789 3.262,-3.984 4.902,-8.938 4.902,-14.844 0,-9.133 -3.144,-16.308 -9.414,-21.543 -6.269,-5.234 -14.687,-7.851 -25.273,-7.851 h -35.766 v 100.769"
         style="fill:#1bab9a;fill-opacity:1;fill-rule:nonzero;stroke:none"
         transform="matrix(0.13333333,0,0,-0.13333333,0,145.06667)" />
      <path
         id="path59"
         d="m 717.445,750.781 v -87.246 h -15.547 v 87.246 h -30.332 v 13.524 h 76.211 v -13.524 h -30.332"
         style="fill:#1bab9a;fill-opacity:1;fill-rule:nonzero;stroke:none"
         transform="matrix(0.13333333,0,0,-0.13333333,0,145.06667)" />
      <path
         id="path60"
         d="m 790.004,676.902 h 45.566 v -13.367 h -61.281 v 100.77 h 61.281 v -13.524 h -45.566 v -29.394 h 38.719 v -13.535 h -38.719 v -30.95"
         style="fill:#1bab9a;fill-opacity:1;fill-rule:nonzero;stroke:none"
         transform="matrix(0.13333333,0,0,-0.13333333,0,145.06667)" />
      <path
         id="path61"
         d="m 902.172,661.973 c -13.586,0 -23.926,4.461 -31.027,13.379 -7.098,8.914 -10.653,21.933 -10.653,39.031 0,16.074 3.711,28.672 11.113,37.793 7.422,9.121 17.657,13.691 30.723,13.691 5.293,0 10.211,-0.652 14.766,-1.953 4.57,-1.289 9.082,-3.34 13.535,-6.141 l -7.149,-12.285 c -3.535,2.176 -7.031,3.789 -10.507,4.825 -3.469,1.035 -6.914,1.55 -10.332,1.55 -8.614,0 -15.09,-3.133 -19.446,-9.402 -4.355,-6.281 -6.531,-15.637 -6.531,-28.078 0,-12.957 2.125,-22.625 6.375,-29.004 4.25,-6.375 10.781,-9.559 19.602,-9.559 4.043,0 7.714,0.516 11.035,1.551 3.32,1.035 7.156,2.902 11.512,5.598 l 6.691,-11.504 c -4.356,-3.117 -9.082,-5.469 -14.16,-7.082 -5.078,-1.602 -10.254,-2.41 -15.547,-2.41"
         style="fill:#1bab9a;fill-opacity:1;fill-rule:nonzero;stroke:none"
         transform="matrix(0.13333333,0,0,-0.13333333,0,145.06667)" />
      <path
         id="path62"
         d="m 974.875,709.258 v -45.723 h -15.711 v 100.77 h 15.711 v -41.524 h 36.865 v 41.524 h 15.7 v -100.77 h -15.7 v 45.723 h -36.865"
         style="fill:#1bab9a;fill-opacity:1;fill-rule:nonzero;stroke:none"
         transform="matrix(0.13333333,0,0,-0.13333333,0,145.06667)" />
      <path
         id="path63"
         d="m 1126.54,663.535 h -19.14 l -33.12,80.399 v -80.399 h -13.84 v 100.77 h 18.98 l 33.28,-80.555 v 80.555 h 13.84 v -100.77"
         style="fill:#1bab9a;fill-opacity:1;fill-rule:nonzero;stroke:none"
         transform="matrix(0.13333333,0,0,-0.13333333,0,145.06667)" />
      <path
         id="path64"
         d="m 1221.78,676.902 v -13.367 h -67.03 v 13.367 h 25.82 v 73.879 h -25.35 v 13.524 h 66.09 v -13.524 h -25.35 v -73.879 h 25.82"
         style="fill:#1bab9a;fill-opacity:1;fill-rule:nonzero;stroke:none"
         transform="matrix(0.13333333,0,0,-0.13333333,0,145.06667)" />
      <path
         id="path65"
         d="m 1285.74,661.973 c -13.59,0 -23.92,4.461 -31.03,13.379 -7.1,8.914 -10.65,21.933 -10.65,39.031 0,16.074 3.71,28.672 11.12,37.793 7.41,9.121 17.65,13.691 30.72,13.691 5.28,0 10.21,-0.652 14.77,-1.953 4.57,-1.289 9.07,-3.34 13.53,-6.141 l -7.16,-12.285 c -3.52,2.176 -7.02,3.789 -10.49,4.825 -3.48,1.035 -6.92,1.55 -10.35,1.55 -8.6,0 -15.08,-3.133 -19.44,-9.402 -4.36,-6.281 -6.52,-15.637 -6.52,-28.078 0,-12.957 2.12,-22.625 6.36,-29.004 4.26,-6.375 10.79,-9.559 19.6,-9.559 4.05,0 7.73,0.516 11.05,1.551 3.32,1.035 7.15,2.902 11.5,5.598 l 6.69,-11.504 c -4.35,-3.117 -9.07,-5.469 -14.15,-7.082 -5.08,-1.602 -10.26,-2.41 -15.55,-2.41"
         style="fill:#1bab9a;fill-opacity:1;fill-rule:nonzero;stroke:none"
         transform="matrix(0.13333333,0,0,-0.13333333,0,145.06667)" />
      <path
         id="path66"
         d="m 1374.49,753.113 -13.84,-49.609 h 27.53 z m 40.75,-89.578 h -16.02 l -7.46,26.746 h -34.69 l -7.46,-26.746 h -15.4 l 29.4,100.77 h 22.23 l 29.4,-100.77"
         style="fill:#1bab9a;fill-opacity:1;fill-rule:nonzero;stroke:none"
         transform="matrix(0.13333333,0,0,-0.13333333,0,145.06667)" />
      <path
         id="path67"
         d="m 1457.85,676.902 h 47.28 v -13.367 h -62.98 v 100.77 h 15.7 v -87.403"
         style="fill:#1bab9a;fill-opacity:1;fill-rule:nonzero;stroke:none"
         transform="matrix(0.13333333,0,0,-0.13333333,0,145.06667)" />
      <path
         id="path68"
         d="m 709.984,489.188 c 5.907,0 10.469,1.66 13.692,4.98 3.203,3.32 4.812,8.039 4.812,14.152 v 69.364 h 15.246 V 508.32 c 0,-9.953 -3.086,-17.941 -9.257,-23.945 -6.172,-6.016 -14.336,-9.023 -24.493,-9.023 -10.265,0 -18.535,3.007 -24.804,9.023 -6.27,6.004 -9.414,13.992 -9.414,23.945 v 69.364 h 15.711 V 508.32 c 0,-6.113 1.613,-10.832 4.812,-14.152 3.227,-3.32 7.785,-4.98 13.695,-4.98"
         style="fill:#1bab9a;fill-opacity:1;fill-rule:nonzero;stroke:none"
         transform="matrix(0.13333333,0,0,-0.13333333,0,145.06667)" />
      <path
         id="path69"
         d="m 842.699,476.902 h -19.121 l -33.125,80.411 v -80.411 h -13.848 v 100.782 h 18.973 l 33.281,-80.555 v 80.555 h 13.84 V 476.902"
         style="fill:#1bab9a;fill-opacity:1;fill-rule:nonzero;stroke:none"
         transform="matrix(0.13333333,0,0,-0.13333333,0,145.06667)" />
      <path
         id="path70"
         d="M 937.941,490.281 V 476.902 H 870.91 v 13.379 h 25.82 v 73.867 h -25.351 v 13.536 h 66.094 v -13.536 h -25.34 v -73.867 h 25.808"
         style="fill:#1bab9a;fill-opacity:1;fill-rule:nonzero;stroke:none"
         transform="matrix(0.13333333,0,0,-0.13333333,0,145.06667)" />
      <path
         id="path71"
         d="m 1033.6,577.684 -28.15,-100.782 h -22.247 l -28.14,100.782 h 16.328 l 23.172,-88.496 23.177,88.496 h 15.86"
         style="fill:#1bab9a;fill-opacity:1;fill-rule:nonzero;stroke:none"
         transform="matrix(0.13333333,0,0,-0.13333333,0,145.06667)" />
      <path
         id="path72"
         d="m 1075.28,490.281 h 45.56 v -13.379 h -61.27 v 100.782 h 61.27 v -13.536 h -45.56 v -29.394 h 38.73 V 521.23 h -38.73 v -30.949"
         style="fill:#1bab9a;fill-opacity:1;fill-rule:nonzero;stroke:none"
         transform="matrix(0.13333333,0,0,-0.13333333,0,145.06667)" />
      <path
         id="path73"
         d="m 1203.64,548.133 c 0,5.078 -1.59,9.023 -4.74,11.816 -3.17,2.805 -7.55,4.199 -13.14,4.199 h -18.51 v -32.5 h 18.51 c 5.7,0 10.1,1.426 13.22,4.278 3.11,2.851 4.66,6.926 4.66,12.207 z m -36.39,-30.02 v -41.211 h -15.7 v 100.782 h 34.36 c 10.26,0 18.43,-2.598 24.5,-7.774 6.06,-5.183 9.09,-12.344 9.09,-21.465 0,-7.156 -1.73,-13.144 -5.2,-17.968 -3.48,-4.813 -8.48,-8.211 -15.02,-10.184 l 23.95,-43.391 h -17.72 l -21.93,41.211 h -16.33"
         style="fill:#1bab9a;fill-opacity:1;fill-rule:nonzero;stroke:none"
         transform="matrix(0.13333333,0,0,-0.13333333,0,145.06667)" />
      <path
         id="path74"
         d="m 1312.97,503.809 c 0,-8.606 -3.06,-15.5 -9.18,-20.684 -6.11,-5.187 -14.35,-7.773 -24.73,-7.773 -5.8,0 -11.75,0.828 -17.88,2.488 -6.12,1.66 -11.61,3.984 -16.48,6.992 l 6.69,12.297 c 4.98,-2.91 9.75,-5.039 14.31,-6.379 4.56,-1.355 9.12,-2.02 13.68,-2.02 5.6,0 9.96,1.211 13.06,3.653 3.11,2.43 4.67,5.926 4.67,10.496 0,3.312 -1.25,6.269 -3.73,8.867 -2.49,2.59 -7.99,5.695 -16.48,9.328 -5.71,2.489 -9.91,4.512 -12.6,6.063 -2.7,1.554 -4.98,3.164 -6.85,4.824 -3,2.695 -5.24,5.676 -6.69,8.937 -1.44,3.27 -2.17,6.922 -2.17,10.965 0,8.086 2.9,14.668 8.71,19.758 5.81,5.078 13.43,7.617 22.86,7.617 5.49,0 10.88,-0.722 16.17,-2.179 5.29,-1.454 10.42,-3.575 15.4,-6.375 l -6.22,-12.286 c -4.57,2.489 -8.93,4.325 -13.07,5.516 -4.14,1.191 -8.19,1.797 -12.13,1.797 -4.98,0 -8.88,-1.199 -11.73,-3.582 -2.85,-2.383 -4.28,-5.547 -4.28,-9.484 0,-3.321 1.27,-6.25 3.81,-8.79 2.54,-2.539 8.05,-5.671 16.56,-9.402 5.6,-2.598 9.75,-4.648 12.44,-6.144 2.7,-1.504 4.98,-3.086 6.84,-4.746 3.11,-2.696 5.39,-5.672 6.84,-8.946 1.46,-3.262 2.18,-6.863 2.18,-10.808"
         style="fill:#1bab9a;fill-opacity:1;fill-rule:nonzero;stroke:none"
         transform="matrix(0.13333333,0,0,-0.13333333,0,145.06667)" />
      <path
         id="path75"
         d="m 1404.16,490.281 v -13.379 h -67.03 v 13.379 h 25.82 v 73.867 h -25.35 v 13.536 h 66.09 v -13.536 h -25.34 v -73.867 h 25.81"
         style="fill:#1bab9a;fill-opacity:1;fill-rule:nonzero;stroke:none"
         transform="matrix(0.13333333,0,0,-0.13333333,0,145.06667)" />
      <path
         id="path76"
         d="m 1467.7,564.148 v -87.246 h -15.55 v 87.246 h -30.33 v 13.536 h 76.21 v -13.536 h -30.33"
         style="fill:#1bab9a;fill-opacity:1;fill-rule:nonzero;stroke:none"
         transform="matrix(0.13333333,0,0,-0.13333333,0,145.06667)" />
      <path
         id="path77"
         d="m 1559.17,515.938 v -39.036 h -15.71 v 39.036 l -32.19,61.746 h 16.8 l 23.63,-47.129 23.49,47.129 h 15.87 l -31.89,-61.746"
         style="fill:#1bab9a;fill-opacity:1;fill-rule:nonzero;stroke:none"
         transform="matrix(0.13333333,0,0,-0.13333333,0,145.06667)" />
      <path
         id="path78"
         d="m 688.203,341.141 c 0,-13.27 1.742,-23.016 5.219,-29.239 3.476,-6.218 8.887,-9.336 16.25,-9.336 7.461,0 12.93,3.059 16.406,9.18 3.477,6.113 5.211,15.606 5.211,28.457 0,13.067 -1.734,22.735 -5.211,29.004 -3.476,6.281 -8.945,9.414 -16.406,9.414 -7.461,0 -12.91,-3.008 -16.328,-9.023 -3.418,-6.016 -5.141,-15.496 -5.141,-28.457 z m 59.262,-0.938 c 0,-16.687 -3.242,-29.441 -9.727,-38.25 -6.476,-8.82 -15.832,-13.223 -28.066,-13.223 -12.539,0 -21.953,4.356 -28.223,13.067 -6.281,8.711 -9.414,21.816 -9.414,39.344 0,16.582 3.262,29.316 9.805,38.175 6.523,8.868 15.801,13.301 27.832,13.301 12.656,0 22.109,-4.355 28.379,-13.066 6.269,-8.703 9.414,-21.828 9.414,-39.348"
         style="fill:#1bab9a;fill-opacity:1;fill-rule:nonzero;stroke:none"
         transform="matrix(0.13333333,0,0,-0.13333333,0,145.06667)" />
      <path
         id="path79"
         d="m 794.945,333.055 v -42.774 h -15.558 v 100.782 h 61.125 v -13.536 h -45.567 v -30.945 h 38.719 v -13.527 h -38.719"
         style="fill:#1bab9a;fill-opacity:1;fill-rule:nonzero;stroke:none"
         transform="matrix(0.13333333,0,0,-0.13333333,0,145.06667)" />
      <path
         id="path80"
         d="m 929.777,341.141 c 0,-13.27 1.731,-23.016 5.207,-29.239 3.477,-6.218 8.887,-9.336 16.25,-9.336 7.469,0 12.938,3.059 16.414,9.18 3.469,6.113 5.207,15.606 5.207,28.457 0,13.067 -1.738,22.735 -5.207,29.004 -3.476,6.281 -8.945,9.414 -16.414,9.414 -7.461,0 -12.902,-3.008 -16.328,-9.023 -3.418,-6.016 -5.129,-15.496 -5.129,-28.457 z m 59.25,-0.938 c 0,-16.687 -3.242,-29.441 -9.718,-38.25 -6.473,-8.82 -15.829,-13.223 -28.075,-13.223 -12.539,0 -21.953,4.356 -28.222,13.067 -6.27,8.711 -9.414,21.816 -9.414,39.344 0,16.582 3.269,29.316 9.804,38.175 6.532,8.868 15.809,13.301 27.832,13.301 12.657,0 22.11,-4.355 28.387,-13.066 6.27,-8.703 9.406,-21.828 9.406,-39.348"
         style="fill:#1bab9a;fill-opacity:1;fill-rule:nonzero;stroke:none"
         transform="matrix(0.13333333,0,0,-0.13333333,0,145.06667)" />
      <path
         id="path81"
         d="m 1078.22,317.188 c 0,-8.606 -3.06,-15.5 -9.17,-20.684 -6.13,-5.188 -14.37,-7.774 -24.73,-7.774 -5.82,0 -11.78,0.829 -17.89,2.489 -6.12,1.66 -11.61,3.984 -16.49,6.992 l 6.69,12.297 c 4.97,-2.91 9.74,-5.039 14.31,-6.379 4.56,-1.356 9.12,-2.02 13.69,-2.02 5.59,0 9.94,1.211 13.06,3.653 3.11,2.429 4.67,5.926 4.67,10.496 0,3.312 -1.24,6.269 -3.74,8.867 -2.48,2.59 -7.98,5.695 -16.49,9.328 -5.7,2.488 -9.9,4.512 -12.6,6.063 -2.69,1.554 -4.97,3.164 -6.83,4.824 -3.01,2.695 -5.24,5.676 -6.69,8.937 -1.46,3.27 -2.18,6.922 -2.18,10.965 0,8.086 2.9,14.668 8.71,19.758 5.8,5.078 13.42,7.617 22.86,7.617 5.5,0 10.89,-0.722 16.17,-2.179 5.29,-1.454 10.42,-3.575 15.41,-6.375 l -6.24,-12.286 c -4.55,2.489 -8.9,4.325 -13.05,5.516 -4.15,1.191 -8.2,1.797 -12.13,1.797 -4.98,0 -8.9,-1.199 -11.75,-3.582 -2.85,-2.383 -4.28,-5.547 -4.28,-9.485 0,-3.32 1.27,-6.25 3.81,-8.789 2.54,-2.539 8.07,-5.671 16.57,-9.402 5.6,-2.598 9.74,-4.648 12.45,-6.144 2.68,-1.504 4.97,-3.086 6.84,-4.747 3.11,-2.695 5.39,-5.671 6.84,-8.945 1.45,-3.262 2.18,-6.863 2.18,-10.808"
         style="fill:#1bab9a;fill-opacity:1;fill-rule:nonzero;stroke:none"
         transform="matrix(0.13333333,0,0,-0.13333333,0,145.06667)" />
      <path
         id="path82"
         d="m 1141.52,377.527 v -87.246 h -15.56 v 87.246 h -30.32 v 13.536 h 76.2 v -13.536 h -30.32"
         style="fill:#1bab9a;fill-opacity:1;fill-rule:nonzero;stroke:none"
         transform="matrix(0.13333333,0,0,-0.13333333,0,145.06667)" />
      <path
         id="path83"
         d="m 1250.22,361.512 c 0,5.078 -1.58,9.023 -4.75,11.816 -3.16,2.805 -7.54,4.199 -13.13,4.199 h -18.51 v -32.5 h 18.51 c 5.69,0 10.1,1.426 13.21,4.278 3.11,2.851 4.67,6.925 4.67,12.207 z m -36.39,-30.02 v -41.211 h -15.71 v 100.782 h 34.36 c 10.28,0 18.44,-2.598 24.5,-7.774 6.07,-5.184 9.1,-12.344 9.1,-21.465 0,-7.156 -1.74,-13.144 -5.21,-17.969 -3.48,-4.812 -8.48,-8.21 -15.01,-10.183 l 23.95,-43.391 h -17.72 l -21.93,41.211 h -16.33"
         style="fill:#1bab9a;fill-opacity:1;fill-rule:nonzero;stroke:none"
         transform="matrix(0.13333333,0,0,-0.13333333,0,145.06667)" />
      <path
         id="path84"
         d="m 1330.26,379.863 -13.83,-49.609 h 27.52 z m 40.75,-89.582 h -16.02 l -7.47,26.75 h -34.68 l -7.47,-26.75 h -15.39 l 29.4,100.782 h 22.24 l 29.39,-100.782"
         style="fill:#1bab9a;fill-opacity:1;fill-rule:nonzero;stroke:none"
         transform="matrix(0.13333333,0,0,-0.13333333,0,145.06667)" />
      <path
         id="path85"
         d="m 1457.73,391.063 -28.15,-100.782 h -22.23 l -28.16,100.782 h 16.33 l 23.17,-88.497 23.18,88.497 h 15.86"
         style="fill:#1bab9a;fill-opacity:1;fill-rule:nonzero;stroke:none"
         transform="matrix(0.13333333,0,0,-0.13333333,0,145.06667)" />
      <path
         id="path86"
         d="m 1506.26,379.863 -13.84,-49.609 h 27.52 z m 40.75,-89.582 H 1531 l -7.47,26.75 h -34.68 l -7.47,-26.75 h -15.4 l 29.39,100.782 h 22.25 l 29.39,-100.782"
         style="fill:#1bab9a;fill-opacity:1;fill-rule:nonzero;stroke:none"
         transform="matrix(0.13333333,0,0,-0.13333333,0,145.06667)" />
    </g>
  </g>
</svg>
